<svg width="36" height="35" viewBox="0 0 36 35" fill="none" xmlns="http://www.w3.org/2000/svg">
<g clip-path="url(#clip0)">
<path d="M18.0009 34.9999C27.942 34.9999 36.0008 27.1649 36.0008 17.4999C36.0008 7.83498 27.942 0 18.0009 0C8.05982 0 0.000976562 7.83498 0.000976562 17.4999C0.000976562 27.1649 8.05982 34.9999 18.0009 34.9999Z" fill="#4E598F"/>
<path d="M35.9715 16.5226L27.4934 8.27744C27.353 8.31879 27.0025 8.16027 26.8485 8.19035C23.2121 8.7796 19.697 8.19035 16.1818 9.13309C14.4848 9.60449 14.3636 11.6078 13.7576 12.9041C12.9091 15.261 13.0304 17.8536 11.9394 20.0926C11.2122 21.6246 9.51517 22.5674 8.90908 24.3351C8.70693 25.0723 8.71888 26.0016 8.4903 26.7064L16.9967 34.9726C17.3289 34.9903 17.6632 35.0001 18 35.0001C27.941 35.0001 35.9999 27.1651 35.9999 17.5002C36 17.1721 35.9899 16.8462 35.9715 16.5226Z" fill="#364270"/>
<path d="M25.5264 7.48315H10.4736C8.94015 7.48315 7.69696 8.69174 7.69696 10.1827V24.8173C7.69696 26.3083 8.94008 27.5168 10.4736 27.5168H17.8974L17.9103 20.3581H15.9971C15.7485 20.3581 15.5467 20.1626 15.5458 19.9209L15.5365 17.6132C15.5355 17.3703 15.7381 17.1726 15.9879 17.1726H17.8977V14.9429C17.8977 12.3554 19.5232 10.9464 21.8974 10.9464H23.8457C24.0948 10.9464 24.2971 11.1429 24.2971 11.3853V13.331C24.2971 13.5734 24.095 13.7699 23.846 13.7699L22.6503 13.7706C21.3591 13.7706 21.1089 14.367 21.1089 15.2425V17.1729H23.9461C24.2167 17.1729 24.4263 17.4025 24.3944 17.6633L24.113 19.971C24.0862 20.1919 23.8935 20.3583 23.6648 20.3583H21.1217L21.1089 27.5172H25.5263C27.0597 27.5172 28.3029 26.3085 28.3029 24.8177V10.1827C28.303 8.69181 27.0598 7.48315 25.5264 7.48315Z" fill="white"/>
<path d="M17.8979 27.5169L17.9112 20.3582H17.8788V27.5169H17.8979Z" fill="white"/>
<path d="M25.5264 7.48315H17.8788V17.1724H17.8977V14.9428C17.8977 12.3552 19.5232 10.9463 21.8973 10.9463H23.8457C24.0948 10.9463 24.2971 11.1428 24.2971 11.3852V13.3309C24.2971 13.5733 24.095 13.7697 23.846 13.7697L22.6502 13.7704C21.3591 13.7704 21.1089 14.3668 21.1089 15.2424V17.1727H23.9461C24.2167 17.1727 24.4263 17.4023 24.3943 17.6631L24.113 19.9708C24.0862 20.1917 23.8935 20.358 23.6648 20.358H21.1217L21.1089 27.517H25.5263C27.0597 27.517 28.3029 26.3083 28.3029 24.8174V10.1827C28.303 8.69181 27.0598 7.48315 25.5264 7.48315Z" fill="#D1D1D1"/>
</g>
<defs>
<clipPath id="clip0">
<rect width="36" height="35" fill="white"/>
</clipPath>
</defs>
</svg>
