<svg width="35" height="36" viewBox="0 0 35 36" fill="none" xmlns="http://www.w3.org/2000/svg">
<path d="M17.5 36C27.165 36 35 27.9411 35 18C35 8.05887 27.165 0 17.5 0C7.83502 0 0 8.05887 0 18C0 27.9411 7.83502 36 17.5 36Z" fill="#7AA5DA"/>
<path d="M34.9948 17.5835L27.2264 9.60645L14.5725 25.4711L23.6837 34.8426C30.2967 32.2726 35 25.7017 35 18C35 17.8607 34.9979 17.7219 34.9948 17.5835Z" fill="#5786B5"/>
<path d="M26.2306 9.38802C26.9283 9.10804 27.6495 9.73593 27.4963 10.4898L24.3675 25.8729C24.2213 26.5941 23.3976 26.9189 22.8202 26.4825L18.097 22.9165L15.6894 25.445C15.2663 25.8887 14.5369 25.708 14.3554 25.1165L12.6184 19.445L7.96227 18.0304C7.35066 17.8449 7.31532 16.9698 7.90806 16.731L26.2306 9.38802ZM23.9338 12.8013C24.1377 12.6159 23.9008 12.2886 23.6698 12.4365L13.62 18.8474C13.4432 18.9601 13.3619 19.1819 13.4243 19.3867L14.7949 25.5771C14.822 25.6716 14.9539 25.6583 14.9658 25.5601L15.2721 20.8426C15.2839 20.7262 15.3381 20.6195 15.423 20.542L23.9338 12.8013Z" fill="white"/>
<path d="M23.6699 12.4367C23.9009 12.2888 24.1377 12.6161 23.9339 12.8016L15.4231 20.5422C15.3383 20.6197 15.2841 20.7264 15.2723 20.8428L14.9659 25.5603C14.9541 25.6585 14.8221 25.6718 14.795 25.5773L13.4244 19.3869C13.362 19.1821 13.4433 18.9603 13.6201 18.8476L23.6699 12.4367Z" fill="#9EC2E5"/>
<path d="M14.8445 25.6415C14.623 25.5603 14.4356 25.3785 14.3555 25.1166L12.6185 19.4451L7.96239 18.0305C7.35078 17.845 7.31544 16.9699 7.90819 16.7311L26.2307 9.3882C26.6808 9.20757 27.1416 9.40514 27.3691 9.77126C27.3266 9.7046 27.276 9.6428 27.2194 9.58824L14.7891 20.0258V20.4827L14.7207 20.4318L14.7891 23.3094V25.6173C14.8068 25.6258 14.8256 25.6331 14.8445 25.6391V25.6415H14.8445Z" fill="white"/>
<path d="M27.5163 10.2318C27.5199 10.3142 27.514 10.4014 27.4963 10.49L24.3675 25.873C24.2214 26.5942 23.3976 26.919 22.8202 26.4827L18.097 22.9166L14.7891 20.4827V20.0257L27.2194 9.58813C27.2759 9.6427 27.3266 9.7045 27.369 9.77116C27.3773 9.78571 27.3855 9.799 27.3938 9.81236C27.4008 9.82692 27.4091 9.84147 27.4162 9.85476C27.4232 9.86931 27.4303 9.88387 27.4362 9.89842C27.4433 9.91417 27.4492 9.92873 27.4551 9.94448C27.4598 9.95784 27.4657 9.97232 27.4704 9.98814C27.4857 10.0354 27.4975 10.0839 27.5057 10.1348C27.5105 10.1663 27.514 10.1979 27.5163 10.2318Z" fill="#D1D1D1"/>
<path d="M18.097 22.9165L15.6895 25.445C15.6694 25.4656 15.6483 25.4862 15.627 25.5045C15.6058 25.5227 15.5845 25.5384 15.5622 25.5542C15.561 25.5554 15.561 25.5554 15.561 25.5554C15.5163 25.5857 15.4703 25.6111 15.422 25.6317C15.3972 25.6414 15.3737 25.6511 15.3489 25.6572C15.2464 25.6887 15.1415 25.6972 15.0378 25.6863C15.0107 25.6839 14.9836 25.679 14.9577 25.6742C14.9541 25.6742 14.9507 25.673 14.9471 25.6718C14.9212 25.6646 14.8952 25.6572 14.8693 25.6487C14.861 25.6463 14.8528 25.6439 14.8446 25.639L14.7892 23.3094V20.4827L18.097 22.9165Z" fill="#D1D1D1"/>
<path d="M15.6269 25.5044C15.6057 25.5226 15.5845 25.5396 15.5621 25.5553V25.5541C15.5846 25.5384 15.6057 25.5226 15.6269 25.5044Z" fill="#DADDE0"/>
<path d="M15.5629 25.554V25.556C15.5629 25.556 15.5629 25.554 15.5609 25.556C15.5609 25.556 15.5609 25.556 15.5629 25.554Z" fill="#DADDE0"/>
<path d="M15.4219 25.6318C15.4702 25.6112 15.5161 25.5857 15.5609 25.5554C15.5161 25.5857 15.469 25.6111 15.4219 25.6318Z" fill="#DADDE0"/>
<path d="M15.0377 25.6874C15.1414 25.6987 15.2463 25.6899 15.3488 25.6572C15.2746 25.6824 15.198 25.6937 15.1214 25.6937C15.0978 25.6937 15.0742 25.6924 15.0519 25.6899C15.0472 25.6899 15.0424 25.6899 15.0377 25.6874Z" fill="#DADDE0"/>
<path d="M15.1214 25.6943C15.0978 25.6943 15.0742 25.6928 15.0519 25.6897C15.0742 25.6928 15.0978 25.6943 15.1214 25.6943Z" fill="white"/>
<path d="M15.0377 25.6871C15.0425 25.6897 15.0472 25.6897 15.0519 25.6897C15.0271 25.6884 15.0047 25.6843 14.9812 25.679C15 25.6831 15.0189 25.6857 15.0377 25.6871Z" fill="white"/>
<path d="M15.0378 25.6872C15.0189 25.686 15 25.6836 14.9812 25.6799C14.973 25.6787 14.9648 25.6775 14.9576 25.675C14.9836 25.6799 15.0106 25.6848 15.0378 25.6872Z" fill="#DADDE0"/>
<path d="M14.8693 25.6487C14.8952 25.6575 14.9211 25.665 14.9471 25.6726C14.9365 25.6701 14.9259 25.6676 14.9153 25.6651C14.9106 25.6638 14.9058 25.6626 14.9023 25.66C14.8916 25.6575 14.8799 25.6537 14.8693 25.6487Z" fill="#DADDE0"/>
<path d="M14.9152 25.6653C14.9263 25.6679 14.9375 25.6707 14.9487 25.6733C14.9375 25.672 14.9263 25.6693 14.9152 25.6653Z" fill="white"/>
<path d="M14.8693 25.6487C14.8799 25.6536 14.8917 25.6573 14.9023 25.6597C14.8846 25.656 14.8669 25.6499 14.8492 25.6426C14.8563 25.645 14.8622 25.6475 14.8693 25.6487Z" fill="white"/>
<path d="M14.8706 25.6499C14.8632 25.6485 14.8569 25.6458 14.8495 25.6431C14.8482 25.6445 14.8457 25.6431 14.8445 25.6418V25.6392C14.8531 25.6445 14.8619 25.6471 14.8706 25.6499Z" fill="#DADDE0"/>
<path d="M14.7891 23.3093L14.8444 25.639C14.8256 25.6329 14.8067 25.6256 14.7891 25.6172V23.3093Z" fill="#D1D1D1"/>
<path d="M14.7891 20.4828V23.3095L14.7207 20.4319L14.7891 20.4828Z" fill="#DADDE0"/>
<path d="M23.9339 12.8015L15.4231 20.5421C15.3383 20.6197 15.2841 20.7264 15.2723 20.8427L14.9664 25.5607C14.9547 25.6589 14.8227 25.6722 14.7944 25.5776L13.4244 19.387C13.362 19.1822 13.4433 18.9603 13.6201 18.8476L23.6699 12.4367C23.9009 12.2888 24.1378 12.6161 23.9339 12.8015Z" fill="#ADBCC9"/>
</svg>
