<svg width="37" height="36" viewBox="0 0 37 36" fill="none" xmlns="http://www.w3.org/2000/svg">
<path d="M18.5 36C28.7173 36 37 27.9411 37 18C37 8.05887 28.7173 0 18.5 0C8.28273 0 0 8.05887 0 18C0 27.9411 8.28273 36 18.5 36Z" fill="#65A2D9"/>
<path d="M28.4014 9.79614C26.4717 11.4252 24.553 12.853 22.9848 14.8482C19.1272 19.3744 14.4132 25.7959 7.99792 24.8387L19.46 35.9759C29.1765 35.4926 36.9119 27.7147 36.9978 18.1604L28.4014 9.79614Z" fill="#3A7CA5"/>
<path d="M28.7525 11.4238C28.2818 11.6269 27.7935 11.7871 27.2922 11.903C27.8446 11.3924 28.2598 10.7536 28.494 10.0408C28.5609 9.83739 28.3337 9.66126 28.1448 9.77024C27.4475 10.1728 26.6963 10.4745 25.9123 10.6676C25.8669 10.6788 25.82 10.6844 25.7729 10.6844C25.6298 10.6844 25.4913 10.6329 25.3818 10.5393C24.5477 9.82389 23.4747 9.42993 22.3608 9.42993C21.8786 9.42993 21.392 9.50306 20.9143 9.64727C19.4338 10.094 18.2914 11.2823 17.9328 12.7483C17.7984 13.298 17.7621 13.8485 17.8247 14.384C17.8317 14.4456 17.802 14.4885 17.7836 14.5086C17.7511 14.5439 17.7053 14.5642 17.6575 14.5642C17.6523 14.5642 17.6467 14.564 17.6413 14.5635C14.4005 14.2705 11.478 12.7514 9.4125 10.2859C9.30736 10.1601 9.10516 10.1756 9.02118 10.3156C8.61678 10.991 8.40302 11.7633 8.40302 12.5491C8.40302 13.7534 8.9005 14.8884 9.76429 15.7159C9.40101 15.6321 9.04937 15.5001 8.72265 15.3235C8.56454 15.2381 8.37021 15.3481 8.36797 15.5239C8.34557 17.313 9.42219 18.905 11.0349 19.6219C11.0024 19.6226 10.9699 19.6229 10.9374 19.6229C10.6818 19.6229 10.4228 19.5991 10.1681 19.5515C9.99012 19.5187 9.8406 19.6828 9.89581 19.8505C10.4195 21.4409 11.8265 22.613 13.5106 22.8789C12.1131 23.7918 10.4854 24.2732 8.79152 24.2732L8.26355 24.273C8.10059 24.273 7.96293 24.3763 7.92173 24.5296C7.8809 24.6804 7.95599 24.8399 8.09488 24.9184C10.0036 25.9993 12.1809 26.5704 14.392 26.5704C16.3275 26.5704 18.1381 26.1969 19.7733 25.4596C21.2724 24.784 22.5971 23.8182 23.7108 22.589C24.7483 21.4439 25.5594 20.1221 26.1219 18.66C26.658 17.2667 26.9414 15.7795 26.9414 14.3601V14.2923C26.9414 14.0644 27.0473 13.85 27.2322 13.7038C27.9336 13.1496 28.5445 12.4974 29.0476 11.7652C29.1806 11.5719 28.971 11.3295 28.7525 11.4238Z" fill="white"/>
<path d="M28.7525 11.4238C28.2817 11.6269 27.7934 11.7871 27.2921 11.903C27.8445 11.3924 28.2598 10.7536 28.494 10.0408C28.561 9.83739 28.3337 9.66126 28.1449 9.77024C27.4475 10.1728 26.6964 10.4745 25.9123 10.6676C25.8669 10.6788 25.8201 10.6844 25.7729 10.6844C25.6299 10.6844 25.4913 10.6329 25.3819 10.5393C24.5478 9.82389 23.4748 9.42993 22.3608 9.42993C21.8787 9.42993 21.3921 9.50306 20.9143 9.64727C19.8793 9.95953 19.0106 10.635 18.4584 11.5138V25.9614C18.908 25.8187 19.3467 25.6518 19.7735 25.4594C21.2726 24.7838 22.5973 23.818 23.7109 22.5888C24.7484 21.4436 25.5596 20.1219 26.1221 18.6598C26.6581 17.2665 26.9416 15.7793 26.9416 14.3599V14.2921C26.9416 14.0642 27.0474 13.8498 27.2324 13.7036C27.9338 13.1494 28.5447 12.4972 29.0478 11.7649C29.1806 11.5719 28.971 11.3295 28.7525 11.4238Z" fill="#D1D1D1"/>
</svg>
