<svg width="35" height="35" viewBox="0 0 35 35" fill="none" xmlns="http://www.w3.org/2000/svg">
<path d="M17.5 35C27.165 35 35 27.165 35 17.5C35 7.83502 27.165 0 17.5 0C7.83502 0 0 7.83502 0 17.5C0 27.165 7.83502 35 17.5 35Z" fill="#D22215"/>
<path d="M26.3085 11.6443C25.7838 11.8045 25.2365 11.9421 24.6885 12.0791C20.7996 12.904 15.6144 10.665 13.3754 14.3182C11.508 17.223 10.9184 20.858 8.79413 23.4553L20.1406 34.8018C27.6923 33.6588 33.6603 27.6899 34.8021 20.1379L26.3085 11.6443Z" fill="#A81411"/>
<path d="M23.3549 10.4133H11.6451C9.34767 10.4133 7.48529 12.2758 7.48529 14.5731V20.4269C7.48529 22.7243 9.34774 24.5867 11.6451 24.5867H23.3549C25.6523 24.5867 27.5147 22.7242 27.5147 20.4269V14.5731C27.5147 12.2758 25.6523 10.4133 23.3549 10.4133ZM20.5416 17.7848L15.0646 20.3969C14.9186 20.4666 14.75 20.3603 14.75 20.1986V14.811C14.75 14.6469 14.9231 14.5406 15.0692 14.6148L20.5462 17.3902C20.7093 17.4727 20.7063 17.7063 20.5416 17.7848Z" fill="white"/>
<path d="M23.3549 10.4133H17.3821V15.7867L20.5463 17.3901C20.7093 17.4727 20.7063 17.7062 20.5416 17.7847L17.3821 19.2916V24.5867H23.3549C25.6523 24.5867 27.5147 22.7242 27.5147 20.4269V14.5731C27.5147 12.2758 25.6523 10.4133 23.3549 10.4133Z" fill="#D1D1D1"/>
</svg>
