<?xml version="1.0" encoding="utf-8"?>
<!-- Generator: Adobe Illustrator 24.1.1, SVG Export Plug-In . SVG Version: 6.00 Build 0)  -->
<svg version="1.1" id="Layer_1" xmlns="http://www.w3.org/2000/svg" xmlns:xlink="http://www.w3.org/1999/xlink" x="0px" y="0px"
	 viewBox="0 0 16.6 16" style="enable-background:new 0 0 16.6 16;" xml:space="preserve">
<style type="text/css">
	.st0{fill:#A7FAC4;}
	.st1{fill:#9ABFE8;}
</style>
<g>
	<path class="st0" d="M8.1,12.8c-0.2,0-0.4-0.2-0.4-0.4v-0.6c0-0.2,0.2-0.4,0.4-0.4s0.4,0.2,0.4,0.4v0.6C8.4,12.7,8.3,12.8,8.1,12.8
		z"/>
</g>
<g>
	<path class="st0" d="M8.1,7.2C7.9,7.2,7.7,7,7.7,6.8V6.2c0-0.2,0.2-0.4,0.4-0.4S8.4,6,8.4,6.2v0.6C8.4,7,8.3,7.2,8.1,7.2z"/>
</g>
<g>
	<path class="st0" d="M7.9,9.7C7,9.7,6.2,9.1,6.1,8.1c0,0,0-0.1,0-0.1c0.1-0.5,0.4-1,0.9-1.2c0.4-0.3,1-0.4,1.5-0.3
		C9.2,6.7,9.8,7.3,10,8c0,0.2-0.1,0.4-0.3,0.4c-0.2,0-0.4-0.1-0.4-0.3C9.2,7.7,8.8,7.3,8.3,7.2C8,7.2,7.7,7.2,7.4,7.4
		C7.1,7.6,7,7.8,6.9,8.1C7,8.7,7.5,9,8,9c0.2,0,0.4,0.1,0.4,0.3S8.3,9.7,8.1,9.7C8,9.7,8,9.7,7.9,9.7z"/>
</g>
<g>
	<path class="st0" d="M8.1,12.2c-0.1,0-0.3,0-0.4,0c-0.8-0.2-1.4-0.8-1.5-1.5c0-0.2,0.1-0.4,0.3-0.4c0.2,0,0.4,0.1,0.4,0.3
		C7,11,7.3,11.4,7.8,11.5c0.3,0.1,0.6,0,0.9-0.2c0.3-0.2,0.5-0.4,0.5-0.8c0-0.5-0.4-0.8-1.2-0.8c-0.2,0-0.4-0.2-0.4-0.4S7.9,9,8.1,9
		C9.5,9,10,9.9,10,10.6c-0.1,0.6-0.4,1-0.9,1.3C8.8,12.1,8.4,12.2,8.1,12.2z"/>
</g>
<g>
	<rect x="0.4" y="14.5" class="st1" width="15" height="1.3"/>
</g>
<g>
	<rect x="1.6" y="12.8" class="st1" width="2.7" height="0.8"/>
</g>
<g>
	<rect x="11.4" y="12.8" class="st1" width="2.7" height="0.8"/>
</g>
<g>
	<rect x="2.2" y="4.8" class="st1" width="1.6" height="7.3"/>
</g>
<g>
	<rect x="12.1" y="4.8" class="st1" width="1.6" height="7.3"/>
</g>
<g>
	<polygon class="st1" points="15.6,3.1 15.6,4.8 0.4,4.8 0.4,3.3 8.3,1 	"/>
</g>
<g>
	<path d="M8.3,12.5c-0.1,0-0.3-0.1-0.3-0.3v-0.6c0-0.1,0.1-0.3,0.3-0.3s0.3,0.1,0.3,0.3v0.6C8.6,12.4,8.5,12.5,8.3,12.5z"/>
</g>
<g>
	<path d="M8.3,6.9c-0.1,0-0.3-0.1-0.3-0.3V6.1c0-0.1,0.1-0.3,0.3-0.3s0.3,0.1,0.3,0.3v0.6C8.6,6.8,8.5,6.9,8.3,6.9z"/>
</g>
<g>
	<path d="M8.2,9.4C7.3,9.4,6.6,8.8,6.5,8c0,0,0-0.1,0-0.1C6.6,7.4,6.9,7,7.3,6.7c0.4-0.3,0.9-0.3,1.4-0.2c0.7,0.2,1.2,0.7,1.4,1.4
		c0,0.1-0.1,0.3-0.2,0.3C9.8,8.2,9.7,8.1,9.6,8c-0.1-0.5-0.5-0.9-1-1c-0.3-0.1-0.7,0-1,0.2C7.3,7.3,7.1,7.6,7,7.9
		c0.1,0.6,0.7,1.1,1.3,1c0.1,0,0.3,0.1,0.3,0.2c0,0.1-0.1,0.3-0.2,0.3C8.3,9.4,8.2,9.4,8.2,9.4z"/>
</g>
<g>
	<path d="M8.3,11.9c-0.1,0-0.3,0-0.4,0c-0.7-0.2-1.2-0.7-1.4-1.4c0-0.1,0.1-0.3,0.2-0.3c0.1,0,0.3,0.1,0.3,0.2c0.1,0.5,0.5,0.9,1,1
		c0.7,0.2,1.5-0.3,1.6-1c0-0.6-0.5-1-1.3-1c-0.1,0-0.3-0.1-0.3-0.3c0-0.1,0.1-0.3,0.3-0.3c1.3,0,1.8,0.8,1.8,1.5
		C9.9,11.4,9.2,11.9,8.3,11.9z"/>
</g>
<g>
	<path d="M16.3,16h-16c-0.1,0-0.3-0.1-0.3-0.3v-2c0-0.1,0.1-0.3,0.3-0.3h16c0.1,0,0.3,0.1,0.3,0.3v2C16.6,15.8,16.4,16,16.3,16z
		 M0.6,15.5h15.5V14H0.6V15.5z"/>
</g>
<g>
	<path d="M4.4,12.4h-2c-0.1,0-0.3-0.1-0.3-0.3V4.8c0-0.1,0.1-0.3,0.3-0.3h2c0.1,0,0.3,0.1,0.3,0.3v7.4C4.6,12.3,4.5,12.4,4.4,12.4z
		 M2.6,11.9h1.5V5H2.6V11.9z"/>
</g>
<g>
	<path d="M14.4,12.5h-2.3c-0.1,0-0.3-0.1-0.3-0.3V4.8c0-0.1,0.1-0.3,0.3-0.3h2.3c0.1,0,0.3,0.1,0.3,0.3v7.4
		C14.6,12.3,14.5,12.5,14.4,12.5z M12.3,12h1.8V5h-1.8V12z"/>
</g>
<g>
	<path d="M5.1,14H1.6c-0.1,0-0.3-0.1-0.3-0.3v-1.5c0-0.1,0.1-0.3,0.3-0.3h3.5c0.1,0,0.3,0.1,0.3,0.3v1.5C5.3,13.8,5.2,14,5.1,14z
		 M1.8,13.5h3v-1h-3V13.5z"/>
</g>
<g>
	<path d="M14.9,14h-3.5c-0.1,0-0.3-0.1-0.3-0.3v-1.5c0-0.1,0.1-0.3,0.3-0.3h3.5c0.1,0,0.3,0.1,0.3,0.3v1.5
		C15.2,13.8,15.1,14,14.9,14z M11.7,13.5h3v-1h-3V13.5z"/>
</g>
<g>
	<path d="M16.3,5h-16C0.1,5,0,4.9,0,4.8V2.6c0-0.1,0.1-0.2,0.2-0.2l8-2.4c0,0,0.1,0,0.1,0l8,2.4c0.1,0,0.2,0.1,0.2,0.2v2.1
		C16.5,4.9,16.4,5,16.3,5z M0.5,4.5H16V2.8L8.3,0.5L0.5,2.8V4.5z"/>
</g>
<g>
	<path d="M12.4,3.4H3.7c-0.1,0-0.3-0.1-0.3-0.3s0.1-0.3,0.3-0.3h8.7c0.1,0,0.3,0.1,0.3,0.3S12.6,3.4,12.4,3.4z"/>
</g>
</svg>
