<?xml version="1.0" encoding="utf-8"?>
<!-- Generator: Adobe Illustrator 24.1.1, SVG Export Plug-In . SVG Version: 6.00 Build 0)  -->
<svg version="1.1" id="Layer_1" xmlns="http://www.w3.org/2000/svg" xmlns:xlink="http://www.w3.org/1999/xlink" x="0px" y="0px"
	 viewBox="0 0 16.1 15.5" style="enable-background:new 0 0 16.1 15.5;" xml:space="preserve">
<style type="text/css">
	.st0{fill:#C6FAD8;}
	.st1{fill:#A7FAC4;}
	.st2{fill:#82FAAA;}
</style>
<g>
	<rect x="0.3" y="10.2" class="st0" width="3.5" height="5"/>
	<path d="M3.8,15.5H0.3c-0.1,0-0.3-0.1-0.3-0.3v-5C0,10.1,0.1,10,0.3,10h3.5C3.9,10,4,10.1,4,10.2v5C4,15.4,3.9,15.5,3.8,15.5z
		 M0.5,15h3v-4.5h-3V15z"/>
</g>
<g>
	<rect x="6.2" y="5.2" class="st1" width="3.5" height="10"/>
	<path d="M9.7,15.5H6.2c-0.1,0-0.3-0.1-0.3-0.3v-10C6,5.1,6.1,5,6.2,5h3.5C9.8,5,10,5.1,10,5.2v10C10,15.4,9.8,15.5,9.7,15.5z
		 M6.5,15h3V5.5h-3V15z"/>
</g>
<g>
	<rect x="12.3" y="0.2" class="st2" width="3.5" height="15"/>
	<path d="M15.8,15.5h-3.5c-0.1,0-0.3-0.1-0.3-0.3v-15c0-0.1,0.1-0.3,0.3-0.3h3.5c0.1,0,0.3,0.1,0.3,0.3v15
		C16.1,15.4,15.9,15.5,15.8,15.5z M12.6,15h3V0.5h-3V15z"/>
</g>
</svg>
