<?xml version="1.0" encoding="utf-8"?>
<!-- Generator: Adobe Illustrator 24.1.1, SVG Export Plug-In . SVG Version: 6.00 Build 0)  -->
<svg version="1.1" id="Layer_1" xmlns="http://www.w3.org/2000/svg" xmlns:xlink="http://www.w3.org/1999/xlink" x="0px" y="0px"
	 viewBox="0 0 16.6 15.5" style="enable-background:new 0 0 16.6 15.5;" xml:space="preserve">
<style type="text/css">
	.st0{fill:#A7FAC4;}
	.st1{fill:#9ABFE8;}
	.st2{fill:#595959;}
</style>
<g>
	<path class="st0" d="M5.3,13.7h-1c-0.1,0-0.3-0.1-0.3-0.3s0.1-0.3,0.3-0.3h1c0.1,0,0.3,0.1,0.3,0.3S5.4,13.7,5.3,13.7z"/>
</g>
<g>
	<path class="st0" d="M8.3,13.7h-1c-0.1,0-0.3-0.1-0.3-0.3s0.1-0.3,0.3-0.3h1c0.1,0,0.3,0.1,0.3,0.3S8.4,13.7,8.3,13.7z"/>
</g>
<g>
	<path class="st0" d="M11.3,13.7h-1c-0.1,0-0.3-0.1-0.3-0.3s0.1-0.3,0.3-0.3h1c0.1,0,0.3,0.1,0.3,0.3S11.4,13.7,11.3,13.7z"/>
</g>
<g>
	<path class="st0" d="M14.3,13.7h-1c-0.1,0-0.3-0.1-0.3-0.3s0.1-0.3,0.3-0.3h1c0.1,0,0.3,0.1,0.3,0.3S14.4,13.7,14.3,13.7z"/>
</g>
<g>
	<path class="st1" d="M4.8,8.7h1.8c0.3,0,0.6,0.3,0.6,0.6l0,0c0,0.3-0.3,0.6-0.6,0.6H4.8c-0.3,0-0.6-0.3-0.6-0.6l0,0
		C4.2,9,4.5,8.7,4.8,8.7z"/>
</g>
<g>
	<path class="st1" d="M12.3,10.1c0.2,0.2,0.5,0.3,0.8,0.3c0.7-0.1,1.2-0.7,1.1-1.4C14.2,8.5,13.7,8,13.1,8c-0.3,0-0.6,0.1-0.8,0.3"
		/>
</g>
<g>
	<ellipse class="st0" cx="11.5" cy="9.2" rx="1.3" ry="1.4"/>
</g>
<g>
	<rect x="0.3" y="2.7" class="st1" width="14.1" height="2"/>
</g>
<g>
	<path class="st2" d="M14.8,15.5H3.7c-1,0-1.8-0.8-1.8-1.8v-6c0-1,0.8-1.8,1.8-1.8h11.1c1,0,1.8,0.8,1.8,1.8v6
		C16.6,14.7,15.8,15.5,14.8,15.5z M3.7,6.5C3,6.5,2.4,7.1,2.4,7.8v6C2.4,14.4,3,15,3.7,15h11.1c0.7,0,1.3-0.6,1.3-1.3v-6
		c0-0.7-0.6-1.3-1.3-1.3H3.7z"/>
</g>
<g>
	<path class="st2" d="M2.2,9.5H1.8C0.8,9.5,0,8.7,0,7.8v-6C0,0.8,0.8,0,1.8,0h11.1c1,0,1.8,0.8,1.8,1.8v4.5c0,0.1-0.1,0.3-0.3,0.3
		s-0.3-0.1-0.3-0.3V1.8c0-0.7-0.6-1.3-1.3-1.3H1.8c-0.7,0-1.3,0.6-1.3,1.3v6C0.5,8.4,1.1,9,1.8,9h0.4c0.1,0,0.3,0.1,0.3,0.3
		S2.3,9.5,2.2,9.5z"/>
</g>
<g>
	<path class="st2" d="M14.4,5H0.3C0.1,5,0,4.9,0,4.8v-2c0-0.1,0.1-0.3,0.3-0.3h14.1c0.1,0,0.3,0.1,0.3,0.3v2C14.6,4.9,14.5,5,14.4,5
		z M0.5,4.5h13.6V3H0.5V4.5z"/>
</g>
<g>
	<path class="st2" d="M5.3,13.5h-1c-0.1,0-0.3-0.1-0.3-0.3S4.2,13,4.3,13h1c0.1,0,0.3,0.1,0.3,0.3S5.4,13.5,5.3,13.5z"/>
</g>
<g>
	<path class="st2" d="M8.3,13.5h-1c-0.1,0-0.3-0.1-0.3-0.3S7.2,13,7.3,13h1c0.1,0,0.3,0.1,0.3,0.3S8.4,13.5,8.3,13.5z"/>
</g>
<g>
	<path class="st2" d="M11.3,13.5h-1c-0.1,0-0.3-0.1-0.3-0.3s0.1-0.3,0.3-0.3h1c0.1,0,0.3,0.1,0.3,0.3S11.4,13.5,11.3,13.5z"/>
</g>
<g>
	<path class="st2" d="M14.3,13.5h-1c-0.1,0-0.3-0.1-0.3-0.3s0.1-0.3,0.3-0.3h1c0.1,0,0.3,0.1,0.3,0.3S14.4,13.5,14.3,13.5z"/>
</g>
<g>
	<path class="st2" d="M6.6,10.2H4.8c-0.5,0-0.9-0.4-0.9-0.9s0.4-0.9,0.9-0.9h1.8c0.5,0,0.9,0.4,0.9,0.9S7.1,10.2,6.6,10.2z M4.8,9
		C4.6,9,4.4,9.2,4.4,9.4s0.2,0.4,0.4,0.4h1.8c0.2,0,0.4-0.2,0.4-0.4S6.8,9,6.6,9H4.8z"/>
</g>
<g>
	<path class="st2" d="M11.5,10.7c-0.8,0-1.4-0.7-1.4-1.5s0.6-1.5,1.4-1.5S13,8.4,13,9.2S12.3,10.7,11.5,10.7z M11.5,8.3
		c-0.5,0-0.9,0.4-0.9,1c0,0.6,0.4,1,0.9,1c0.5,0,0.9-0.4,0.9-1C12.5,8.7,12,8.3,11.5,8.3z"/>
</g>
<g>
	<path class="st2" d="M13.1,10.7c-0.4,0-0.7-0.1-1-0.4c-0.1-0.1-0.1-0.3,0-0.4c0.1-0.1,0.3-0.1,0.4,0c0.2,0.2,0.4,0.2,0.6,0.3
		c0.2,0,0.5-0.1,0.7-0.4C14,9.7,14,9.4,14,9.1c0-0.5-0.4-0.9-0.9-0.9c0,0,0,0,0,0c-0.2,0-0.4,0.1-0.6,0.3c-0.1,0.1-0.3,0.1-0.4,0
		c-0.1-0.1-0.1-0.3,0-0.4c0.3-0.3,0.6-0.4,1-0.4c0,0,0,0,0,0c0.7,0.1,1.3,0.6,1.4,1.4c0,0.4-0.1,0.8-0.3,1.1
		C13.9,10.5,13.6,10.7,13.1,10.7C13.1,10.7,13.1,10.7,13.1,10.7z"/>
</g>
</svg>
