<?xml version="1.0" encoding="utf-8"?>
<!-- Generator: Adobe Illustrator 24.1.1, SVG Export Plug-In . SVG Version: 6.00 Build 0)  -->
<svg version="1.1" id="Layer_1" xmlns="http://www.w3.org/2000/svg" xmlns:xlink="http://www.w3.org/1999/xlink" x="0px" y="0px"
	 viewBox="0 0 16.4 16.4" style="enable-background:new 0 0 16.4 16.4;" xml:space="preserve">
<style type="text/css">
	.st0{fill:#A7FAC4;}
</style>
<g>
	<path class="st0" d="M10.2,9.9c0,0.6-0.4,1-1,1h-2v-2h2C9.8,8.9,10.2,9.3,10.2,9.9z"/>
</g>
<g>
	<path class="st0" d="M10.2,6.9c0,0.6-0.4,1-1,1h-2v-2h2C9.8,5.9,10.2,6.3,10.2,6.9z"/>
</g>
<g>
	<path class="st0" d="M7.8,1.8C3.9,1.8,0.7,5,0.7,8.9c0,3.9,3.2,7.1,7.1,7.1s7.1-3.2,7.1-7.1c0,0,0,0,0,0C14.8,5,11.7,1.8,7.8,1.8z
		 M11.2,10.1c0,1-0.8,1.8-1.8,1.8H9.2v1h-1v-1h-1v1h-1v-1h-1v-1h1v-5h-1v-1h1v-1h1v1h1v-1h1v1h0.3c0.9,0,1.7,0.8,1.7,1.7v0.5
		c0,0.5-0.2,0.9-0.5,1.3c0.3,0.3,0.5,0.8,0.5,1.2V10.1z"/>
</g>
<g>
	<path d="M8.2,16.4C3.7,16.4,0,12.7,0,8.2S3.7,0,8.2,0c4.5,0,8.2,3.7,8.2,8.2C16.4,12.7,12.7,16.4,8.2,16.4z M8.2,0.5
		C4,0.5,0.5,4,0.5,8.2c0,4.2,3.5,7.7,7.7,7.7c4.2,0,7.7-3.5,7.7-7.7C15.9,4,12.5,0.5,8.2,0.5z"/>
</g>
<g>
	<path d="M8.2,14.8c-3.6,0-6.6-3-6.6-6.6s3-6.6,6.6-6.6c3.6,0,6.6,3,6.6,6.6C14.8,11.8,11.8,14.8,8.2,14.8z M8.2,2.1
		c-3.4,0-6.1,2.7-6.1,6.1s2.7,6.1,6.1,6.1c3.4,0,6.1-2.7,6.1-6.1C14.3,4.8,11.6,2.1,8.2,2.1z"/>
</g>
<g>
	<path d="M9.2,13.1h-1C8.1,13.1,8,13,8,12.9v-0.8H7.5v0.8c0,0.1-0.1,0.3-0.3,0.3h-1C6.1,13.1,6,13,6,12.9v-0.8H5.2
		C5.1,12.1,5,12,5,11.9v-1c0-0.1,0.1-0.3,0.3-0.3H6V6.1H5.2C5.1,6.1,5,6,5,5.9v-1c0-0.1,0.1-0.3,0.3-0.3H6V3.9
		c0-0.1,0.1-0.3,0.3-0.3h1c0.1,0,0.3,0.1,0.3,0.3v0.8H8V3.9c0-0.1,0.1-0.3,0.3-0.3h1c0.1,0,0.3,0.1,0.3,0.3v0.8c1.1,0,2,0.9,2,2v0.5
		c0,0.5-0.2,0.9-0.5,1.3c0.3,0.3,0.5,0.8,0.5,1.2v0.5c0,1.1-0.9,1.9-1.9,2H9.5v0.8C9.5,13,9.3,13.1,9.2,13.1z M8.5,12.6H9v-0.8
		c0-0.1,0.1-0.3,0.3-0.3h0.3c0.8,0,1.4-0.7,1.5-1.5V9.6c0-0.4-0.2-0.8-0.5-1.1c-0.1,0-0.1-0.1-0.1-0.2s0-0.1,0.1-0.2
		C10.8,7.9,11,7.5,11,7.1V6.6c0-0.8-0.7-1.5-1.5-1.5H9.2C9.1,5.1,9,5,9,4.9V4.1H8.5v0.8c0,0.1-0.1,0.3-0.3,0.3h-1C7.1,5.1,7,5,7,4.9
		V4.1H6.5v0.8c0,0.1-0.1,0.3-0.3,0.3H5.5v0.5h0.8c0.1,0,0.3,0.1,0.3,0.3v5c0,0.1-0.1,0.3-0.3,0.3H5.5v0.5h0.8c0.1,0,0.3,0.1,0.3,0.3
		v0.8H7v-0.8c0-0.1,0.1-0.3,0.3-0.3h1c0.1,0,0.3,0.1,0.3,0.3V12.6z M9.2,11.2h-2C7.1,11.2,7,11,7,10.9v-2c0-0.1,0.1-0.3,0.3-0.3h2
		c0.7,0,1.3,0.6,1.3,1.3S9.9,11.2,9.2,11.2z M7.5,10.7h1.8c0.4,0,0.8-0.3,0.8-0.8S9.6,9.2,9.2,9.2H7.5V10.7z M9.2,8.2h-2
		C7.1,8.2,7,8,7,7.9v-2c0-0.1,0.1-0.3,0.3-0.3h2c0.7,0,1.3,0.6,1.3,1.3S9.9,8.2,9.2,8.2z M7.5,7.7h1.8c0.4,0,0.8-0.3,0.8-0.8
		S9.6,6.2,9.2,6.2H7.5V7.7z"/>
</g>
</svg>
