<?xml version="1.0" encoding="utf-8"?>
<!-- Generator: Adobe Illustrator 24.1.1, SVG Export Plug-In . SVG Version: 6.00 Build 0)  -->
<svg version="1.1" id="Layer_1" xmlns="http://www.w3.org/2000/svg" xmlns:xlink="http://www.w3.org/1999/xlink" x="0px" y="0px"
	 viewBox="0 0 16.5 16.5" style="enable-background:new 0 0 16.5 16.5;" xml:space="preserve">
<style type="text/css">
	.st0{fill:#9ABFE8;}
	.st1{fill:#A7FAC4;}
	.st2{fill:#595959;}
</style>
<g>
	<circle class="st0" cx="10.7" cy="12" r="4"/>
</g>
<g>
	<path class="st1" d="M8.3,7.4c0.2-0.5,0.3-1,0.3-1.6c0-2.2-1.8-4-4-4s-4,1.8-4,4s1.8,4,4,4c0.5,0,1.1-0.1,1.6-0.3L8.3,7.4z"/>
</g>
<g>
	<path class="st2" d="M11.2,16.5c-2.9,0-5.3-2.4-5.3-5.3S8.3,6,11.2,6c2.9,0,5.3,2.4,5.3,5.2S14.1,16.5,11.2,16.5z M11.2,6.5
		c-2.6,0-4.8,2.1-4.8,4.7c0,2.6,2.1,4.8,4.8,4.8s4.8-2.1,4.8-4.8C16,8.7,13.8,6.5,11.2,6.5z"/>
</g>
<g>
	<path class="st2" d="M11.2,15.5c-2.3,0-4.3-1.9-4.3-4.3C7,8.9,8.9,7,11.2,7c2.3,0,4.3,1.9,4.3,4.2C15.5,13.6,13.5,15.5,11.2,15.5z
		 M11.2,7.5c-2.1,0-3.8,1.7-3.8,3.7S9.1,15,11.2,15c2.1,0,3.8-1.7,3.8-3.8S13.3,7.5,11.2,7.5z"/>
</g>
<g>
	<path class="st2" d="M5.2,10.5c-1,0-2-0.3-2.8-0.8c-1.2-0.8-2-1.9-2.3-3.3c-0.6-2.8,1.2-5.6,4-6.3c1.4-0.3,2.8-0.1,4,0.7
		c1.2,0.8,2,1.9,2.3,3.3c0.1,0.4,0.1,0.8,0.1,1.2c0,0.4,0,0.8-0.1,1.2c0,0.1-0.2,0.2-0.3,0.2c-0.1,0-0.2-0.2-0.2-0.3
		C10,6,10,5.6,10,5.3c0-0.4,0-0.7-0.1-1.1c-0.3-1.2-1-2.3-2.1-3C6.7,0.6,5.5,0.3,4.2,0.6C1.7,1.2,0,3.7,0.6,6.3c0.3,1.2,1,2.3,2.1,3
		C3.8,9.9,5,10.2,6.3,9.9c0.1,0,0.3,0.1,0.3,0.2c0,0.1-0.1,0.3-0.2,0.3C6,10.5,5.6,10.5,5.2,10.5z"/>
</g>
<g>
	<path class="st2" d="M5.3,9.5C5.3,9.5,5.3,9.5,5.3,9.5C2.9,9.5,1,7.6,1,5.3S2.9,1,5.3,1s4.3,1.9,4.3,4.3c0,0.6-0.1,1.2-0.4,1.7
		C9.1,7.1,8.9,7.1,8.8,7.1C8.7,7,8.6,6.9,8.7,6.7C8.9,6.3,9,5.8,9,5.3c0-2.1-1.7-3.7-3.8-3.7S1.5,3.2,1.5,5.3S3.2,9,5.3,9
		c0,0,0,0,0,0c0.5,0,1-0.1,1.4-0.3C6.8,8.7,7,8.7,7,8.9s0,0.3-0.1,0.3C6.4,9.4,5.8,9.5,5.3,9.5z"/>
</g>
<g>
	<path class="st2" d="M5.3,15.5h-2c-1.2,0-2.3-1-2.3-2.3v-2C1,11.1,1.1,11,1.3,11s0.3,0.1,0.3,0.3v2c0,1,0.8,1.8,1.7,1.8h2
		c0.1,0,0.3,0.1,0.3,0.3S5.4,15.5,5.3,15.5z"/>
</g>
<g>
	<path class="st2" d="M3.5,16.5c-0.1,0-0.2,0-0.2-0.1c-0.1-0.1,0-0.3,0.1-0.3l1.7-1c0.1-0.1,0.3,0,0.3,0.1c0.1,0.1,0,0.3-0.1,0.3
		l-1.7,1C3.6,16.5,3.6,16.5,3.5,16.5z"/>
</g>
<g>
	<path class="st2" d="M5.2,15.5c0,0-0.1,0-0.1,0l-1.7-1c-0.1-0.1-0.2-0.2-0.1-0.3C3.4,14,3.5,14,3.6,14.1l1.7,1
		c0.1,0.1,0.2,0.2,0.1,0.3C5.4,15.5,5.3,15.5,5.2,15.5z"/>
</g>
<g>
	<path class="st2" d="M15.3,5.5c-0.1,0-0.3-0.1-0.3-0.3v-2c0-1-0.8-1.8-1.8-1.8h-2c-0.1,0-0.3-0.1-0.3-0.3S11.1,1,11.3,1h2
		c1.2,0,2.3,1,2.3,2.3v2C15.5,5.4,15.4,5.5,15.3,5.5z"/>
</g>
<g>
	<path class="st2" d="M11.2,1.5c-0.1,0-0.2,0-0.2-0.1c-0.1-0.1,0-0.3,0.1-0.3l1.7-1c0.1-0.1,0.3,0,0.3,0.1c0.1,0.1,0,0.3-0.1,0.3
		l-1.7,1C11.3,1.5,11.3,1.5,11.2,1.5z"/>
</g>
<g>
	<path class="st2" d="M12.9,2.5c0,0-0.1,0-0.1,0l-1.7-1C11,1.4,10.9,1.3,11,1.1C11.1,1,11.2,1,11.3,1.1l1.7,1
		c0.1,0.1,0.2,0.2,0.1,0.3C13.1,2.5,13,2.5,12.9,2.5z"/>
</g>
<g>
	<path class="st2" d="M5.2,8C4.9,8,4.6,7.9,4.3,7.7C4.1,7.5,3.9,7.2,3.9,6.8c0-0.1,0-0.1,0-0.2C3.8,6.3,4,5.4,5.2,5c1-0.3,1-0.9,1-1
		c0-0.5-0.3-0.9-0.8-1l-0.1,0C4.9,3,4.6,3.2,4.4,3.4c-0.1,0.1-0.2,0.1-0.4,0C4,3.4,4,3.2,4.1,3.1c0.3-0.4,0.7-0.6,1.2-0.6
		c0,0,0.1,0,0.1,0C5.7,2.6,6,2.7,6.3,3c0.2,0.3,0.4,0.6,0.3,1c0.1,0.3-0.1,1.2-1.3,1.5c-1,0.3-1,1-1,1.1c0,0.1,0,0.1,0,0.1
		c0,0.2,0.1,0.4,0.3,0.5C4.8,7.5,5,7.5,5.2,7.5c0.3,0,0.6-0.2,0.8-0.4C6.1,6.9,6.3,6.9,6.4,7c0.1,0.1,0.1,0.2,0.1,0.3
		C6.2,7.7,5.7,8,5.2,8C5.2,8,5.2,8,5.2,8z"/>
</g>
<g>
	<path class="st2" d="M6.8,6.1h-3C3.6,6.1,3.5,6,3.5,5.8s0.1-0.3,0.3-0.3h3C6.9,5.6,7,5.7,7,5.8S6.9,6.1,6.8,6.1z"/>
</g>
<g>
	<path class="st2" d="M6.8,5h-3C3.6,5,3.5,4.9,3.5,4.8s0.1-0.3,0.3-0.3h3C6.9,4.5,7,4.6,7,4.8S6.9,5,6.8,5z"/>
</g>
<g>
	<path class="st2" d="M11.2,14.1c-0.1,0-0.3-0.1-0.3-0.3v-0.5c0-0.1,0.1-0.3,0.3-0.3s0.3,0.1,0.3,0.3v0.5
		C11.5,13.9,11.3,14.1,11.2,14.1z"/>
</g>
<g>
	<path class="st2" d="M11.2,9.5c-0.1,0-0.3-0.1-0.3-0.3V8.8c0-0.1,0.1-0.3,0.3-0.3s0.3,0.1,0.3,0.3v0.5C11.5,9.4,11.3,9.5,11.2,9.5z
		"/>
</g>
<g>
	<path class="st2" d="M11.3,11.5C11.2,11.5,11.2,11.5,11.3,11.5c-0.7-0.2-1.1-0.9-1-1.5c0.1-0.3,0.3-0.6,0.6-0.8
		c0.3-0.2,0.6-0.2,0.9-0.1c0.5,0.1,0.9,0.6,0.9,1.2c0,0.1-0.1,0.3-0.2,0.3c-0.1,0-0.3-0.1-0.3-0.2c0-0.3-0.2-0.6-0.6-0.7
		c-0.2-0.1-0.4,0-0.6,0.1c-0.2,0.1-0.3,0.3-0.3,0.5c-0.1,0.4,0.1,0.8,0.5,0.9c0.1,0,0.2,0.2,0.2,0.3C11.5,11.4,11.4,11.5,11.3,11.5z
		"/>
</g>
<g>
	<path class="st2" d="M11.3,13.5c-0.1,0-0.2,0-0.3,0c-0.6-0.1-1.1-0.6-1.2-1.2c0-0.1,0.1-0.3,0.2-0.3c0.1,0,0.3,0.1,0.3,0.2
		c0.1,0.4,0.4,0.7,0.8,0.8c0.3,0.1,0.5,0,0.8-0.2c0.2-0.2,0.4-0.4,0.4-0.7c0-0.4-0.4-0.7-1-0.7c-0.1,0-0.3-0.1-0.3-0.3
		s0.1-0.3,0.3-0.3c1.1,0,1.5,0.7,1.5,1.3c-0.1,0.5-0.3,0.8-0.7,1C11.8,13.5,11.5,13.5,11.3,13.5z"/>
</g>
</svg>
