<?xml version="1.0" encoding="utf-8"?>
<!-- Generator: Adobe Illustrator 24.1.1, SVG Export Plug-In . SVG Version: 6.00 Build 0)  -->
<svg version="1.1" id="Layer_1" xmlns="http://www.w3.org/2000/svg" xmlns:xlink="http://www.w3.org/1999/xlink" x="0px" y="0px"
	 viewBox="0 0 16.5 17.5" style="enable-background:new 0 0 16.5 17.5;" xml:space="preserve">
<style type="text/css">
	.st0{fill:#A7FAC4;}
	.st1{fill:#9ABFE8;}
	.st2{fill:#595959;}
</style>
<g>
	<polygon class="st0" points="5.7,12.8 6.7,11.8 13.7,11.8 14.7,12.8 14.7,15.8 13.7,16.8 6.7,16.8 5.7,15.8 	"/>
</g>
<g>
	<path class="st1" d="M8,7.3C7.8,7.3,7.7,7.2,7.7,7V4.4c0-0.1,0.1-0.3,0.3-0.3s0.3,0.1,0.3,0.3V7C8.2,7.2,8.1,7.3,8,7.3z"/>
</g>
<g>
	<path class="st1" d="M10.1,8.3H8.6C8.4,8.3,8.3,8.2,8.3,8c0-0.1,0.1-0.2,0.3-0.2h1.5c0.1,0,0.3,0.1,0.3,0.2
		C10.3,8.2,10.2,8.3,10.1,8.3z"/>
</g>
<g>
	<path class="st1" d="M12.3,3.9C10.2,1.4,6.4,1,3.9,3.2C2.5,4.3,1.7,6,1.7,7.8c0,1.1,0.3,2.2,0.9,3.1C1.7,9.8,1.2,8.4,1.2,7
		c0-3.3,2.8-6,6.1-5.9C9.4,1.1,11.3,2.2,12.3,3.9z"/>
</g>
<g>
	<circle class="st1" cx="7.7" cy="8" r="1"/>
</g>
<g>
	<path class="st2" d="M4.2,14.6c0,0-0.1,0-0.1,0c-3.8-2-5.2-6.7-3.2-10.5c1-1.8,2.6-3.2,4.6-3.8c2-0.6,4.1-0.4,5.9,0.5
		c2.6,1.3,4.1,4,4.1,6.9c0,0.5-0.1,1-0.2,1.6c0,0.1-0.2,0.2-0.3,0.2c-0.1,0-0.2-0.2-0.2-0.3c0.1-0.5,0.2-1,0.2-1.5
		c0-2.7-1.5-5.2-3.9-6.4C9.4,0.4,7.5,0.3,5.6,0.8C3.8,1.4,2.2,2.7,1.3,4.4c-1.9,3.5-0.5,7.9,3,9.8c0.1,0.1,0.2,0.2,0.1,0.3
		C4.4,14.6,4.3,14.6,4.2,14.6z"/>
</g>
<g>
	<path class="st2" d="M4.2,12.9c-0.1,0-0.1,0-0.1,0c-2.8-2-3.4-6-1.4-8.7c1-1.3,2.4-2.2,4.1-2.5c1.7-0.3,3.3,0.1,4.6,1.1
		c1.6,1.2,2.6,3.1,2.6,5c0,0.5-0.1,1.1-0.3,1.6c0,0.1-0.2,0.2-0.3,0.2c-0.1,0-0.2-0.2-0.2-0.3c0.1-0.5,0.2-1,0.2-1.4
		c0-1.8-0.9-3.6-2.4-4.6c-1.2-0.9-2.8-1.3-4.3-1c-1.5,0.2-2.9,1-3.8,2.3c-1.9,2.6-1.3,6.2,1.3,8c0.1,0.1,0.1,0.2,0.1,0.3
		C4.4,12.8,4.3,12.9,4.2,12.9z"/>
</g>
<g>
	<path class="st2" d="M7.7,8.8c-0.6,0-1-0.4-1-1s0.4-1,1-1s1,0.4,1,1S8.3,8.8,7.7,8.8z M7.7,7.3c-0.3,0-0.5,0.2-0.5,0.5
		c0,0.3,0.2,0.5,0.5,0.5S8.2,8,8.2,7.8C8.2,7.5,8,7.3,7.7,7.3z"/>
</g>
<g>
	<path class="st2" d="M7.7,7.3C7.6,7.3,7.5,7.2,7.5,7V4.4c0-0.1,0.1-0.3,0.3-0.3S8,4.3,8,4.4V7C8,7.2,7.9,7.3,7.7,7.3z"/>
</g>
<g>
	<path class="st2" d="M10.1,8H8.6C8.5,8,8.4,7.9,8.4,7.8s0.1-0.3,0.3-0.3h1.5c0.1,0,0.3,0.1,0.3,0.3S10.2,8,10.1,8z"/>
</g>
<g>
	<path class="st2" d="M7.7,3.1C7.6,3.1,7.5,3,7.5,2.8V2.1c0-0.1,0.1-0.3,0.3-0.3S8,1.9,8,2.1v0.8C8,3,7.9,3.1,7.7,3.1z"/>
</g>
<g>
	<path class="st2" d="M11.2,4.5c-0.1,0-0.1,0-0.2-0.1c-0.1-0.1-0.1-0.3,0-0.4l0.5-0.5c0.1-0.1,0.3-0.1,0.4,0s0.1,0.3,0,0.4l-0.5,0.5
		C11.3,4.5,11.3,4.5,11.2,4.5z"/>
</g>
<g>
	<path class="st2" d="M13.4,8h-0.8c-0.1,0-0.3-0.1-0.3-0.2s0.1-0.3,0.3-0.3h0.8c0.1,0,0.3,0.1,0.3,0.3S13.6,8,13.4,8z"/>
</g>
<g>
	<path class="st2" d="M3.7,12c-0.1,0-0.1,0-0.2-0.1c-0.1-0.1-0.1-0.3,0-0.4l0.5-0.5c0.1-0.1,0.3-0.1,0.4,0s0.1,0.3,0,0.4L3.9,12
		C3.8,12,3.8,12,3.7,12z"/>
</g>
<g>
	<path class="st2" d="M2.8,8H2.1C1.9,8,1.8,7.9,1.8,7.8s0.1-0.3,0.3-0.3h0.8c0.1,0,0.3,0.1,0.3,0.3S2.9,8,2.8,8z"/>
</g>
<g>
	<path class="st2" d="M4.2,4.5c-0.1,0-0.1,0-0.2-0.1L3.5,3.9c-0.1-0.1-0.1-0.3,0-0.4s0.3-0.1,0.4,0l0.5,0.5c0.1,0.1,0.1,0.3,0,0.4
		C4.4,4.5,4.3,4.5,4.2,4.5z"/>
</g>
<g>
	<path class="st2" d="M10.7,16.4c-0.1,0-0.3-0.1-0.3-0.3v-4.8c0-0.1,0.1-0.3,0.3-0.3s0.3,0.1,0.3,0.3v4.8
		C11,16.3,10.9,16.4,10.7,16.4z"/>
</g>
<g>
	<path class="st2" d="M10.7,14c-0.7,0-1.3-0.6-1.3-1.3s0.6-1.3,1.3-1.3s1.3,0.6,1.3,1.3c0,0.1-0.1,0.3-0.3,0.3s-0.3-0.1-0.3-0.3
		c0-0.4-0.3-0.8-0.8-0.8S10,12.4,10,12.8s0.3,0.8,0.8,0.8c0.1,0,0.3,0.1,0.3,0.3S10.9,14,10.7,14z"/>
</g>
<g>
	<path class="st2" d="M10.7,16c-0.7,0-1.3-0.6-1.3-1.3c0-0.1,0.1-0.3,0.3-0.3s0.3,0.1,0.3,0.3c0,0.4,0.3,0.8,0.8,0.8
		s0.8-0.3,0.8-0.8S11.2,14,10.7,14c-0.1,0-0.3-0.1-0.3-0.3s0.1-0.3,0.3-0.3c0.7,0,1.3,0.6,1.3,1.3S11.4,16,10.7,16z"/>
</g>
<g>
	<path class="st2" d="M15.3,17.5H6.2c-0.7,0-1.3-0.6-1.3-1.3v-5c0-0.7,0.6-1.3,1.3-1.3h9.1c0.7,0,1.2,0.6,1.2,1.3v5
		C16.5,17,16,17.5,15.3,17.5z M6.2,10.5c-0.4,0-0.8,0.3-0.8,0.8v5c0,0.4,0.3,0.8,0.8,0.8h9.1c0.4,0,0.7-0.3,0.7-0.8v-5
		c0-0.4-0.3-0.8-0.7-0.8H6.2z"/>
</g>
<g>
	<path class="st2" d="M9.7,16.5H7.2c-0.1,0-0.1,0-0.2-0.1l-1-1c0,0-0.1-0.1-0.1-0.2v-3c0-0.1,0-0.1,0.1-0.2l1-1c0,0,0.1-0.1,0.2-0.1
		h2.5c0.1,0,0.3,0.1,0.3,0.3s-0.1,0.3-0.3,0.3H7.4l-0.9,0.9v2.8L7.4,16h2.4c0.1,0,0.3,0.1,0.3,0.3S9.9,16.5,9.7,16.5z"/>
</g>
<g>
	<path class="st2" d="M14.2,16.5h-2.5c-0.1,0-0.3-0.1-0.3-0.3s0.1-0.3,0.3-0.3h2.4l0.9-0.9v-2.8l-0.9-0.9h-2.4
		c-0.1,0-0.3-0.1-0.3-0.3s0.1-0.3,0.3-0.3h2.5c0.1,0,0.1,0,0.2,0.1l1,1c0,0,0.1,0.1,0.1,0.2v3c0,0.1,0,0.1-0.1,0.2l-1,1
		C14.4,16.5,14.3,16.5,14.2,16.5z"/>
</g>
</svg>
