<?xml version="1.0" encoding="utf-8"?>
<!-- Generator: Adobe Illustrator 24.1.1, SVG Export Plug-In . SVG Version: 6.00 Build 0)  -->
<svg version="1.1" id="Layer_1" xmlns="http://www.w3.org/2000/svg" xmlns:xlink="http://www.w3.org/1999/xlink" x="0px" y="0px"
	 viewBox="0 0 16.6 16.7" style="enable-background:new 0 0 16.6 16.7;" xml:space="preserve">
<style type="text/css">
	.st0{fill:#A7FAC4;}
	.st1{fill:#595959;}
	.st2{fill:#9ABFE8;}
</style>
<g id="Слой_2">
	<g>
		<circle class="st0" cx="8.1" cy="10.6" r="1.7"/>
	</g>
	<g>
		<path class="st0" d="M14.1,5.5h-1.5l-1.2-2.1c-0.5,0.3-1.1,0.1-1.4-0.4L9.4,3.5L9.3,3.4L5.6,5.5L3.4,5.6l7.2-4.2
			c0.5-0.3,1.1-0.1,1.4,0.4L14.1,5.5z"/>
	</g>
	<g>
		<path class="st0" d="M12.3,8.4h-10c0,0.6-0.4,1-1,1v4c0.6,0,1,0.4,1,1H8c0-0.1,0-0.1,0-0.2C8,13,9,12,10.3,12
			c0.4,0,0.8,0.1,1.1,0.3c0.1-0.2,0.3-0.3,0.4-0.3c-0.3,0-0.5-0.2-0.5-0.5V11c0-0.3,0.2-0.5,0.5-0.5h1.5V9.4
			C12.8,9.4,12.3,8.9,12.3,8.4z M8.3,12.5c-1.1,0-2-0.9-2-2s0.9-2,2-2s2,0.9,2,2S9.4,12.5,8.3,12.5z"/>
	</g>
	<g>
		<path class="st1" d="M2,5.8c-0.1,0-0.2,0-0.2-0.1c-0.1-0.1,0-0.3,0.1-0.3l8.9-5.1c0.6-0.3,1.4-0.1,1.7,0.5l2.8,4.8
			c0.1,0.1,0,0.3-0.1,0.3c-0.1,0.1-0.3,0-0.3-0.1L12,0.9c-0.2-0.4-0.7-0.5-1-0.3L2.1,5.7C2,5.8,2,5.8,2,5.8z"/>
	</g>
	<g>
		<path class="st1" d="M5.8,5.8c-0.1,0-0.2,0-0.2-0.1c-0.1-0.1,0-0.3,0.1-0.3l4.2-2.4c0.1-0.1,0.3,0,0.3,0.1c0.2,0.4,0.7,0.5,1,0.3
			c0.1-0.1,0.3,0,0.3,0.1l1.2,2.1c0.1,0.1,0,0.3-0.1,0.3c-0.1,0.1-0.3,0-0.3-0.1l-1.1-1.9c-0.5,0.2-1,0-1.3-0.4L6,5.8
			C5.9,5.8,5.9,5.8,5.8,5.8z"/>
	</g>
	<g>
		<path class="st1" d="M8.4,15.7H1.3c-0.7,0-1.3-0.6-1.3-1.3V6.5c0-0.7,0.6-1.3,1.3-1.3h14c0.7,0,1.2,0.6,1.2,1.3v7.9
			c0,0.1,0,0.1,0,0.2c0,0,0,0.1,0,0.1c-0.1,0.2-0.1,0.3-0.3,0.5c-0.1,0.1-0.3,0.1-0.4,0c-0.1-0.1-0.1-0.3,0-0.4
			c0.1-0.1,0.1-0.2,0.1-0.2c0-0.1,0-0.2,0-0.2l0-7.9c0-0.4-0.3-0.8-0.7-0.8h-14c-0.4,0-0.8,0.3-0.8,0.8v7.9c0,0.4,0.3,0.8,0.8,0.8
			h7.1c0.1,0,0.3,0.1,0.3,0.3S8.5,15.7,8.4,15.7z"/>
	</g>
	<g>
		<path class="st1" d="M8.1,13.7H3.3c-0.1,0-0.3-0.1-0.3-0.3c0-0.4-0.3-0.8-0.8-0.8c-0.1,0-0.3-0.1-0.3-0.3v-4
			c0-0.1,0.1-0.3,0.3-0.3C2.7,8.2,3,7.9,3,7.5c0-0.1,0.1-0.3,0.3-0.3h10c0.1,0,0.3,0.1,0.3,0.3c0,0.4,0.3,0.7,0.8,0.7
			c0.1,0,0.3,0.1,0.3,0.3v2c0,0.1-0.1,0.3-0.3,0.3S14,10.6,14,10.5V8.7c-0.5-0.1-0.9-0.5-1-1H3.5c-0.1,0.5-0.5,0.9-1,1v3.5
			c0.5,0.1,0.9,0.5,1,1h4.7c0.1,0,0.3,0.1,0.3,0.3S8.3,13.7,8.1,13.7z"/>
	</g>
	<g>
		<path d="M13.3,13.7h-0.9c-0.1,0-0.3-0.1-0.3-0.3s0.1-0.3,0.3-0.3h0.8c0.2,0,0.3,0.1,0.3,0.2v0C13.5,13.6,13.4,13.7,13.3,13.7z"/>
	</g>
	<g>
		<path class="st1" d="M8.3,12.7c-1.2,0-2.3-1-2.3-2.3s1-2.3,2.3-2.3s2.3,1,2.3,2.3S9.5,12.7,8.3,12.7z M8.3,8.7
			c-1,0-1.8,0.8-1.8,1.8s0.8,1.8,1.8,1.8s1.8-0.8,1.8-1.8S9.2,8.7,8.3,8.7z"/>
	</g>
	<g>
		<circle class="st1" cx="4.3" cy="10.5" r="0.5"/>
	</g>
</g>
<g>
	<path class="st2" d="M16,12.5h-4c-0.1,0-0.3-0.1-0.3-0.3S11.9,12,12,12h4c0.1,0,0.3,0.1,0.3,0.3S16.1,12.5,16,12.5z"/>
</g>
<g>
	<path class="st2" d="M16,11h-4.4c-0.1,0-0.3-0.1-0.3-0.3s0.1-0.3,0.3-0.3H16c0.1,0,0.3,0.1,0.3,0.3S16.1,11,16,11z"/>
</g>
<g>
	<path class="st2" d="M16,14h-3.5c-0.1,0-0.3-0.1-0.3-0.3s0.1-0.3,0.3-0.3H16c0.1,0,0.3,0.1,0.3,0.3S16.1,14,16,14z"/>
</g>
<g>
	<path class="st2" d="M16,15.5h-3.5c-0.1,0-0.3-0.1-0.3-0.3s0.1-0.3,0.3-0.3H16c0.1,0,0.3,0.1,0.3,0.3S16.1,15.5,16,15.5z"/>
</g>
<g>
	<path class="st2" d="M12.1,14.4c0,0.1,0,0.1,0,0.2c-0.2,1.1-1.3,1.8-2.4,1.5c-0.8-0.2-1.4-0.8-1.5-1.5c0,0,0-0.1,0-0.1
		c0-1.1,0.9-2,2-2c0.3,0,0.7,0.1,1,0.3c0.4,0.2,0.7,0.6,0.9,1C12.1,13.9,12.1,14.1,12.1,14.4z"/>
</g>
<g>
	<path class="st1" d="M15.8,15.2h-3.4c-0.1,0-0.3-0.1-0.3-0.3s0.1-0.3,0.3-0.3h3.4c0.1,0,0.2-0.1,0.2-0.3V14c0-0.1-0.1-0.3-0.2-0.3
		h-3.4c-0.1,0-0.3-0.1-0.3-0.3s0.1-0.3,0.3-0.3h3.4c0.4,0,0.7,0.3,0.7,0.8v0.5C16.6,14.9,16.2,15.2,15.8,15.2z"/>
</g>
<g>
	<path class="st1" d="M11.8,16.7c-0.3,0-0.5-0.2-0.7-0.4c-0.1-0.1,0-0.3,0.1-0.3c0.1-0.1,0.3,0,0.3,0.1c0,0.1,0.1,0.1,0.2,0.1l0,0h4
		c0.1,0,0.2-0.1,0.2-0.3v-0.5c0-0.1-0.1-0.3-0.2-0.3h-3.4c-0.1,0-0.3-0.1-0.3-0.3s0.1-0.3,0.3-0.3h3.4c0.4,0,0.7,0.3,0.7,0.8V16
		c0,0.4-0.3,0.8-0.7,0.8H11.8C11.8,16.7,11.8,16.7,11.8,16.7z"/>
</g>
<g>
	<path class="st1" d="M10.3,16.7c-0.1,0-0.2,0-0.2,0c-1.2-0.1-2.1-1.1-2.3-2.3c0-0.1,0-0.2,0-0.2c0-1.3,1.1-2.5,2.5-2.5c0,0,0,0,0,0
		c0.4,0,0.8,0.1,1.2,0.3c0.5,0.3,0.9,0.8,1.1,1.3c0.1,0.3,0.2,0.5,0.2,0.8c0,0.1,0,0.1,0,0.2C12.6,15.7,11.5,16.7,10.3,16.7z
		 M10.3,12.2C10.3,12.2,10.3,12.2,10.3,12.2c-1.1,0-2,0.9-2,2c0,0.1,0,0.1,0,0.2c0.1,1,0.8,1.7,1.8,1.8c1.1,0.1,2.1-0.7,2.2-1.8
		c0,0,0-0.1,0-0.1c0,0,0,0,0,0c0-0.2-0.1-0.5-0.2-0.7c-0.2-0.5-0.5-0.9-0.9-1.1C10.9,12.3,10.6,12.2,10.3,12.2z"/>
</g>
<g>
	<path class="st1" d="M10.3,16c-0.1,0-0.3-0.1-0.3-0.3v-0.3c0-0.1,0.1-0.3,0.3-0.3s0.3,0.1,0.3,0.3v0.3C10.5,15.9,10.4,16,10.3,16z"
		/>
</g>
<g>
	<path class="st1" d="M10.3,13.3c-0.1,0-0.3-0.1-0.3-0.3v-0.3c0-0.1,0.1-0.3,0.3-0.3s0.3,0.1,0.3,0.3V13
		C10.5,13.2,10.4,13.3,10.3,13.3z"/>
</g>
<g>
	<path class="st1" d="M10.3,14.5C10.2,14.5,10.2,14.5,10.3,14.5c-0.5-0.1-0.8-0.6-0.7-1c0.1-0.5,0.6-0.8,1-0.7
		c0.4,0.1,0.7,0.4,0.7,0.9c0,0.1-0.1,0.2-0.3,0.2c-0.1,0-0.2-0.1-0.2-0.3c0-0.2-0.1-0.3-0.3-0.4c-0.2,0-0.4,0.1-0.4,0.3
		c0,0.2,0.1,0.4,0.3,0.4c0.1,0,0.2,0.2,0.2,0.3C10.5,14.4,10.4,14.5,10.3,14.5z"/>
</g>
<g>
	<path class="st1" d="M10.2,15.7c-0.1,0-0.2,0-0.2,0c-0.4-0.1-0.7-0.4-0.8-0.8c0-0.1,0.1-0.3,0.2-0.3c0.1,0,0.3,0.1,0.3,0.2
		c0,0.2,0.2,0.3,0.4,0.4c0.3,0.1,0.6-0.1,0.6-0.4c0-0.2-0.2-0.3-0.5-0.3c-0.1,0-0.3-0.1-0.3-0.3s0.1-0.3,0.3-0.3c0.7,0,1,0.5,1,0.9
		C11.1,15.4,10.7,15.7,10.2,15.7z"/>
</g>
<g>
	<path class="st1" d="M15.8,13.7h-3.4c-0.1,0-0.3-0.1-0.3-0.3s0.1-0.3,0.3-0.3h3.4c0.1,0,0.2-0.1,0.2-0.3v-0.5
		c0-0.1-0.1-0.3-0.2-0.3h-4c-0.1,0-0.2,0.1-0.2,0.1c-0.1,0.1-0.2,0.2-0.3,0.1c-0.1-0.1-0.2-0.2-0.1-0.3c0.1-0.3,0.4-0.4,0.7-0.4h4
		c0.4,0,0.7,0.3,0.7,0.8V13C16.6,13.4,16.2,13.7,15.8,13.7z"/>
</g>
<g>
	<path class="st1" d="M15.8,12.2h-4c-0.4,0-0.8-0.3-0.8-0.8V11c0-0.4,0.3-0.8,0.8-0.8h4c0.4,0,0.7,0.3,0.7,0.8v0.5
		C16.6,11.9,16.2,12.2,15.8,12.2z M11.8,10.7c-0.1,0-0.3,0.1-0.3,0.3v0.5c0,0.1,0.1,0.3,0.3,0.3h4c0.1,0,0.2-0.1,0.2-0.3V11
		c0-0.1-0.1-0.3-0.2-0.3H11.8z"/>
</g>
</svg>
