<?xml version="1.0" encoding="utf-8"?>
<!-- Generator: Adobe Illustrator 24.1.1, SVG Export Plug-In . SVG Version: 6.00 Build 0)  -->
<svg version="1.1" id="Layer_1" xmlns="http://www.w3.org/2000/svg" xmlns:xlink="http://www.w3.org/1999/xlink" x="0px" y="0px"
	 viewBox="0 0 10.7 16.5" style="enable-background:new 0 0 10.7 16.5;" xml:space="preserve">
<style type="text/css">
	.st0{fill:#9ABFE8;}
</style>
<g>
	<path class="st0" d="M3.1,5.4l0.3,1.3l1.1,0.9h1.8l0.5-0.3c0,0,0.5,0.6,0.5,0.6s-1.9,1-2,1S1.8,7.5,1.8,7.5l0.4-1.7L2.5,5L3.1,5.4z
		"/>
</g>
<g>
	<path class="st0" d="M9.9,6.2c0-2.8-2.3-5.1-5.1-5.1c-1.6,0-3.1,0.8-4.1,2C0.4,3.8,0.3,4.6,0.3,5.4c0,0-0.4,4.8,5.1,10.9l0,0
		c0.9-1,1.7-2,2.4-3.1C10.2,9,9.9,6.2,9.9,6.2z M6.9,7L6.9,7C6.5,8.1,5.3,8.8,4.1,8.3C3.6,8.2,3.2,7.9,2.9,7.5L2.8,7.3
		C2.7,7,2.6,6.6,2.6,6.2c0-0.6,0.2-1.2,0.6-1.6c0.4-1.2,1.7-1.8,2.9-1.5C7,3.5,7.6,4.4,7.6,5.4C7.6,5.9,7.4,6.5,6.9,7L6.9,7z"/>
</g>
<g>
	<path d="M5.4,16.5L5.4,16.5c-0.1,0-0.1,0-0.2-0.1C-0.3,10.3,0,5.5,0,5.3C0,2.4,2.4,0,5.4,0c3,0,5.4,2.4,5.4,5.4
		c0,0.2,0.2,3.4-2.7,7.9c-0.7,1.1-1.5,2.2-2.4,3.2C5.5,16.5,5.4,16.5,5.4,16.5z M5.4,0.5c-2.7,0-4.9,2.2-4.9,4.9
		c0,0.1-0.3,4.7,4.9,10.5C6.2,14.9,6.9,14,7.6,13c2.9-4.4,2.7-7.6,2.7-7.6c0,0,0,0,0,0C10.2,2.7,8,0.5,5.4,0.5z M10.7,5.4L10.7,5.4
		L10.7,5.4z M5.4,7.9c-0.7,0-1.3-0.3-1.8-0.7C3.5,7,3.4,6.9,3.3,6.8L3.2,6.6C3,6.2,2.8,5.8,2.8,5.4C2.8,4,4,2.8,5.4,2.8
		S7.9,4,7.9,5.4c0,0.7-0.3,1.3-0.7,1.8l0,0C6.7,7.6,6.1,7.9,5.4,7.9C5.4,7.9,5.4,7.9,5.4,7.9z M5.4,3.3c-1.1,0-2,0.9-2,2
		c0,0.3,0.1,0.7,0.2,0.9l0.1,0.2C3.8,6.6,3.9,6.7,4,6.8c0.4,0.4,0.9,0.6,1.4,0.6c0,0,0,0,0,0c0.5,0,1-0.2,1.4-0.6c0,0,0,0,0,0
		c0.4-0.4,0.6-0.9,0.6-1.4C7.4,4.2,6.5,3.3,5.4,3.3z"/>
</g>
<g>
	<path d="M5.4,7.9c-0.8,0-1.6-0.4-2.1-1.1L3.2,6.6C3,6.2,2.8,5.8,2.8,5.4c0-0.7,0.3-1.3,0.9-1.8C4.2,3.2,4.9,2.9,5.5,3
		c1.3,0.1,2.3,1.1,2.4,2.4c0,0,0,0,0,0C7.9,6.7,6.7,7.9,5.4,7.9C5.4,7.9,5.4,7.9,5.4,7.9z M5.4,3.5C4.9,3.5,4.4,3.6,4,4
		C3.6,4.3,3.4,4.8,3.3,5.4c0,0.3,0.1,0.6,0.3,0.9l0.1,0.2c0.4,0.5,1,0.9,1.6,0.9c0,0,0,0,0,0c1.1,0,2-0.9,2-2
		c-0.1-1-0.9-1.8-1.9-1.9C5.4,3.5,5.4,3.5,5.4,3.5z"/>
</g>
<g>
	<path d="M5.4,7.9c-0.6,0-1.3-0.2-1.8-0.7C3.5,7,3.4,6.9,3.3,6.8L3.2,6.5C3,6.2,2.9,5.8,2.9,5.4c0-0.7,0.3-1.3,0.7-1.8
		c0.5-0.5,1.1-0.7,1.8-0.7c0,0,0,0,0,0c1.4,0,2.5,1.1,2.5,2.5c0,0,0,0.1,0,0.1c0,0.6-0.3,1.2-0.7,1.7C6.7,7.6,6,7.9,5.4,7.9z
		 M5.4,3.3c-0.5,0-1,0.2-1.4,0.6C3.6,4.3,3.4,4.8,3.4,5.4c0,0.3,0.1,0.7,0.2,0.9l0.1,0.2C3.8,6.6,3.9,6.7,4,6.8
		c0.8,0.8,2.1,0.8,2.8,0c0.4-0.4,0.6-0.9,0.6-1.4c0,0,0,0,0-0.1C7.4,4.2,6.5,3.3,5.4,3.3C5.4,3.3,5.4,3.3,5.4,3.3z"/>
</g>
</svg>
