<svg width="50" height="46" viewBox="0 0 50 46" fill="none" xmlns="http://www.w3.org/2000/svg">
<path d="M49.659 19.5763L34.7775 10.2811C34.6206 10.1846 34.4347 10.1591 34.2605 10.2103C34.0863 10.2615 33.9379 10.3851 33.8476 10.5542C33.7573 10.7232 33.7326 10.9241 33.7787 11.1128C33.8249 11.3016 33.9382 11.463 34.0939 11.5617L48.3832 20.4851L43.9968 28.7046L39.576 25.9439L38.2428 25.1112L23.15 15.6867L12.0064 8.72795L15.1725 2.79677C15.4969 2.19093 16.0302 1.74899 16.6555 1.56792C17.2807 1.38685 17.9468 1.48143 18.5077 1.83092L23.3867 4.87805C23.4645 4.92737 23.5505 4.95956 23.6398 4.97277C23.7291 4.98598 23.82 4.97994 23.9071 4.95502C23.9943 4.9301 24.076 4.88677 24.1477 4.82754C24.2193 4.76831 24.2794 4.69434 24.3244 4.60989C24.3695 4.52545 24.3987 4.43219 24.4103 4.33549C24.4219 4.2388 24.4158 4.14057 24.3921 4.04646C24.3685 3.95236 24.3279 3.86424 24.2727 3.78717C24.2174 3.71011 24.1487 3.64562 24.0703 3.59743L19.1913 0.550293C18.3163 0.00529065 17.2772 -0.142112 16.3018 0.140415C15.3265 0.422941 14.4946 1.11233 13.9885 2.05738L10.4806 8.62866L8.14544 13.0029C7.64176 13.9495 7.50571 15.0735 7.76714 16.1284C8.02857 17.1833 8.66612 18.0831 9.53999 18.6303L19.9866 25.1534L18.362 28.1498C18.1459 28.5465 17.838 28.8754 17.4687 29.1042C17.0994 29.3331 16.6813 29.4539 16.2557 29.455H10.1564V24.4271C10.1564 24.231 10.0844 24.0429 9.95618 23.9043C9.82798 23.7656 9.6541 23.6877 9.4728 23.6877H5.76181V22.7337C5.76088 21.8656 5.44162 21.0333 4.87408 20.4194C4.30653 19.8056 3.53705 19.4603 2.73442 19.4593H0.683604C0.593818 19.4592 0.504901 19.4783 0.42194 19.5154C0.338978 19.5526 0.263597 19.607 0.200109 19.6757C0.13662 19.7444 0.0862679 19.8259 0.0519318 19.9156C0.0175957 20.0054 -5.12389e-05 20.1015 1.11747e-07 20.1986V45.2606C-5.12389e-05 45.3577 0.0175957 45.4539 0.0519318 45.5436C0.0862679 45.6334 0.13662 45.7149 0.200109 45.7836C0.263597 45.8522 0.338978 45.9067 0.42194 45.9438C0.504901 45.981 0.593818 46.0001 0.683604 46H2.73442C3.53705 45.999 4.30653 45.6537 4.87408 45.0398C5.44162 44.426 5.76088 43.5937 5.76181 42.7256V40.3768H9.4728C9.6541 40.3768 9.82798 40.2989 9.95618 40.1603C10.0844 40.0216 10.1564 39.8335 10.1564 39.6374V36.0039H16.2557C16.437 36.0039 16.6109 35.926 16.7391 35.7873C16.8673 35.6486 16.9393 35.4606 16.9393 35.2645C16.9393 35.0684 16.8673 34.8803 16.7391 34.7416C16.6109 34.603 16.437 34.5251 16.2557 34.5251H10.1564V30.9338H16.2557C16.9196 30.9322 17.5717 30.7437 18.1479 30.3867C18.724 30.0298 19.2042 29.5168 19.5413 28.8981L21.1722 25.8936L24.048 27.6893L22.4074 30.7157C22.1118 31.2597 21.7553 31.7622 21.346 32.2118C21.2188 32.3516 21.1481 32.5402 21.1495 32.7364C21.1509 32.9325 21.2243 33.1199 21.3535 33.2575C21.4826 33.3952 21.6571 33.4716 21.8384 33.4701C22.0197 33.4686 22.193 33.3893 22.3203 33.2495C22.8087 32.713 23.2341 32.1133 23.5867 31.464L25.2324 28.4287L30.9587 32.0044C31.5352 32.3662 32.1898 32.5571 32.8564 32.5579C33.1914 32.5577 33.525 32.51 33.8486 32.4159C34.4697 32.2367 35.0383 31.8893 35.5009 31.4065C36.2499 31.7824 37.0655 31.9776 37.8912 31.9786C38.3972 31.9782 38.901 31.9061 39.3897 31.764C40.636 31.4057 41.7335 30.6015 42.5034 29.4824L43.9034 30.3566C43.9812 30.4052 44.067 30.4368 44.1561 30.4495C44.2451 30.4622 44.3356 30.4558 44.4223 30.4306C44.5091 30.4055 44.5904 30.3621 44.6616 30.3029C44.7328 30.2437 44.7926 30.17 44.8374 30.0858L49.9078 20.5874C49.9528 20.5033 49.9821 20.4105 49.994 20.3142C50.0059 20.2179 50.0001 20.12 49.977 20.0261C49.9539 19.9322 49.9139 19.8442 49.8593 19.767C49.8048 19.6898 49.7367 19.625 49.659 19.5763ZM4.3946 42.7256C4.39419 43.2017 4.21914 43.6581 3.90789 43.9948C3.59663 44.3314 3.1746 44.5208 2.73442 44.5212H1.36721V20.938H2.73442C3.1746 20.9385 3.59663 21.1278 3.90789 21.4645C4.21914 21.8011 4.39419 22.2576 4.3946 22.7337V42.7256ZM8.7892 38.898H5.76181V25.1665H8.7892V38.898ZM31.6411 30.7238L10.2236 17.3497C9.66333 16.999 9.25457 16.4222 9.08701 15.7459C8.91946 15.0696 9.00678 14.349 9.32983 13.7423L11.322 10.0086L30.9501 22.2656L36.9678 26.0234L34.9751 29.7588L34.9724 29.7634C34.9204 29.8588 34.8629 29.9505 34.8001 30.038V30.041C34.4396 30.5497 33.9205 30.8995 33.3394 31.0251C32.7582 31.1507 32.1547 31.0436 31.6411 30.7238ZM39.0385 30.3355C38.1431 30.5973 37.1938 30.5433 36.3287 30.1813L38.1541 26.7619L41.3155 28.7359C40.7332 29.5179 39.9351 30.0783 39.0377 30.3355H39.0385ZM27.6567 6.68977C27.7474 6.52013 27.8967 6.39638 28.0718 6.34568C28.2468 6.29498 28.4333 6.32148 28.5903 6.41936L30.2598 7.46169C30.3382 7.50989 30.407 7.57437 30.4622 7.65144C30.5175 7.7285 30.5581 7.81663 30.5817 7.91073C30.6053 8.00484 30.6115 8.10306 30.5999 8.19976C30.5882 8.29646 30.5591 8.38971 30.514 8.47416C30.4689 8.55861 30.4088 8.63258 30.3372 8.69181C30.2656 8.75104 30.1839 8.79436 30.0967 8.81929C30.0095 8.84421 29.9187 8.85024 29.8294 8.83703C29.74 8.82382 29.654 8.79163 29.5762 8.74232L27.9067 7.69999C27.8289 7.65142 27.7608 7.58676 27.7061 7.5097C27.6515 7.43265 27.6114 7.3447 27.5882 7.25089C27.565 7.15708 27.5591 7.05924 27.5708 6.96296C27.5826 6.86668 27.6118 6.77385 27.6567 6.68977ZM41.0776 24.6886C41.4757 24.9388 41.9278 25.0707 42.3881 25.071C42.6193 25.0708 42.8493 25.0378 43.0725 24.973C43.66 24.8028 44.1748 24.4175 44.5291 23.8828C44.8835 23.3482 45.0554 22.6971 45.0157 22.0407C44.976 21.3842 44.7271 20.763 44.3114 20.2828C43.8957 19.8026 43.3389 19.4932 42.7359 19.4072C42.1329 19.3213 41.521 19.4641 41.0044 19.8114C40.4879 20.1588 40.0987 20.689 39.9031 21.312C39.7075 21.9349 39.7176 22.6119 39.9318 23.2276C40.146 23.8433 40.5509 24.3596 41.0776 24.6886ZM41.2999 21.5439C41.3826 21.3888 41.4928 21.253 41.6243 21.1442C41.7558 21.0354 41.9058 20.9559 42.0659 20.9102C42.1729 20.8792 42.2832 20.8634 42.394 20.8633C42.672 20.8633 42.9423 20.9626 43.1628 21.1456C43.3833 21.3287 43.5419 21.5854 43.6138 21.8759C43.6857 22.1663 43.667 22.4744 43.5605 22.7521C43.4541 23.0299 43.2659 23.262 43.0251 23.4123C42.7843 23.5626 42.5044 23.6228 42.2288 23.5835C41.9532 23.5442 41.6972 23.4076 41.5007 23.195C41.3041 22.9823 41.1779 22.7054 41.1417 22.4073C41.1055 22.1092 41.1612 21.8064 41.3002 21.546L41.2999 21.5439ZM18.0253 18.2078C17.9805 18.2919 17.9208 18.3657 17.8496 18.4249C17.7784 18.4841 17.6971 18.5275 17.6104 18.5526C17.5237 18.5778 17.4332 18.5842 17.3442 18.5715C17.2552 18.5588 17.1694 18.5272 17.0917 18.4786L11.4885 14.9794C11.4101 14.9312 11.3413 14.8667 11.2861 14.7896C11.2308 14.7126 11.1902 14.6245 11.1666 14.5304C11.143 14.4363 11.1368 14.338 11.1484 14.2413C11.1601 14.1446 11.1892 14.0514 11.2343 13.9669C11.2794 13.8825 11.3395 13.8085 11.4111 13.7493C11.4827 13.6901 11.5644 13.6467 11.6516 13.6218C11.7388 13.5969 11.8296 13.5908 11.9189 13.6041C12.0083 13.6173 12.0943 13.6495 12.1721 13.6988L17.7737 17.1976C17.8516 17.246 17.9199 17.3106 17.9747 17.3875C18.0295 17.4645 18.0697 17.5525 18.0931 17.6463C18.1164 17.7401 18.1225 17.838 18.1108 17.9343C18.0992 18.0307 18.0701 18.1236 18.0253 18.2078Z" fill="url(#paint0_linear)"/>
<defs>
<linearGradient id="paint0_linear" x1="33.7091" y1="42.1577" x2="2.98884" y2="13.7553" gradientUnits="userSpaceOnUse">
<stop stop-color="#0D70B2"/>
<stop offset="1" stop-color="#00DDC1"/>
</linearGradient>
</defs>
</svg>
