<svg width="77" height="88" viewBox="0 0 77 88" fill="none" xmlns="http://www.w3.org/2000/svg">
<path d="M23.4562 32.1528H29.2093C31.3584 27.6469 35.0312 24.2303 39.4395 22.8101C38.5526 20.3492 36.4348 18.6169 33.9624 18.6169C33.3443 18.6169 32.7489 18.7257 32.1893 18.9259C32.1923 18.8231 32.1962 18.7205 32.1962 18.6169C32.1962 13.5906 28.6298 9.51504 24.2315 9.51504C20.4382 9.51504 17.267 12.5455 16.465 16.603C15.9885 16.4215 15.4802 16.3222 14.9507 16.3222C13.3214 16.3222 11.883 17.2544 11.0205 18.6774C10.5393 18.5356 10.034 18.4588 9.51375 18.4588C6.20515 18.4588 3.52307 21.5242 3.52307 25.3056C3.52307 29.0863 6.2053 32.1524 9.51375 32.1524H19.0917" fill="#9FDEF7"/>
<path d="M56.1765 28.0085C53.0983 24.2456 48.7161 21.8935 43.8533 21.8935C35.8212 21.8935 29.1051 28.3122 27.4062 36.9051C26.398 36.5208 25.3211 36.3094 24.2002 36.3094C20.7492 36.3094 17.7039 38.2843 15.8774 41.2976C14.8579 40.9966 13.7888 40.8349 12.6867 40.8349C5.67998 40.8349 0 47.3263 0 55.334C0 63.3413 5.67998 69.8336 12.6867 69.8336H26.6747C26.7042 64.9051 30.2073 60.9205 34.5261 60.9205C35.3451 60.9205 36.1348 61.064 36.8771 61.3299C36.8737 61.1941 36.8683 61.058 36.8683 60.9205C36.8683 54.2539 41.5969 48.8496 47.4299 48.8496C52.4595 48.8496 56.6655 52.8693 57.7292 58.2497C58.3604 58.0089 59.0343 57.8767 59.7363 57.8767C61.8971 57.8767 63.8045 59.1132 64.9481 61.0006C65.5865 60.8118 66.2559 60.7104 66.9459 60.7104C69.8381 60.7104 72.3686 62.4771 73.7579 65.1168C75.7725 62.5742 76.9999 59.2019 76.9999 55.5021C76.9999 47.5862 71.3855 41.1704 64.4596 41.1704C63.1518 41.1704 61.8909 41.3995 60.7054 41.8241C60.7116 41.607 60.7199 41.3894 60.7199 41.1704C60.7199 37.9336 60.0219 34.8834 58.7881 32.2049" fill="#BEEAFC"/>
<path d="M13.4513 40.8617C13.1983 40.8442 12.9436 40.8347 12.6867 40.8347C5.67998 40.8346 0 47.3261 0 55.3338C0 63.3412 5.67998 69.8334 12.6867 69.8334H26.6747C26.6839 68.2869 27.0357 66.8335 27.6469 65.567C20.7305 59.4838 15.6348 50.8331 13.4513 40.8617Z" fill="#AEE4FF"/>
<path d="M12.274 29.9108C12.274 25.208 12.9069 20.6746 14.0786 16.4138C12.815 16.6804 11.7256 17.515 11.0207 18.6776C10.5394 18.5358 10.0341 18.4589 9.51391 18.4589C6.2053 18.4589 3.52322 21.5243 3.52322 25.3058C3.52322 29.0865 6.20545 32.1526 9.51391 32.1526H12.3229C12.291 31.4098 12.274 30.6626 12.274 29.9108Z" fill="#83D4ED"/>
<path d="M17 50.6C17 49.92 17.0133 49.36 17.04 48.92C17.0667 48.48 17.12 48.1333 17.2 47.88C17.28 47.6267 17.38 47.4533 17.5 47.36C17.6333 47.2667 17.8 47.22 18 47.22C18.2 47.22 18.3667 47.2667 18.5 47.36C18.6333 47.4533 18.7333 47.6267 18.8 47.88C18.88 48.1333 18.9333 48.48 18.96 48.92C18.9867 49.36 19 49.92 19 50.6C19 51.28 18.9867 51.84 18.96 52.28C18.9333 52.7067 18.88 53.0467 18.8 53.3C18.7333 53.5533 18.6333 53.7267 18.5 53.82C18.3667 53.9133 18.2 53.96 18 53.96C17.8 53.96 17.6333 53.9133 17.5 53.82C17.38 53.7267 17.28 53.5533 17.2 53.3C17.12 53.0467 17.0667 52.7067 17.04 52.28C17.0133 51.84 17 51.28 17 50.6ZM22.6 50.6C22.6 49.8133 22.5533 49.08 22.46 48.4C22.38 47.7067 22.1867 47.1 21.88 46.58C21.5733 46.06 21.1133 45.6533 20.5 45.36C19.8867 45.0533 19.0533 44.9 18 44.9C16.9867 44.9 16.1733 45.0667 15.56 45.4C14.96 45.72 14.5 46.1467 14.18 46.68C13.86 47.2133 13.6467 47.82 13.54 48.5C13.4467 49.18 13.4 49.8733 13.4 50.58C13.4 51.3667 13.44 52.1067 13.52 52.8C13.6133 53.48 13.8133 54.08 14.12 54.6C14.4267 55.1067 14.8867 55.5067 15.5 55.8C16.1133 56.08 16.9467 56.22 18 56.22C19.0133 56.22 19.82 56.0667 20.42 55.76C21.0333 55.44 21.5 55.02 21.82 54.5C22.14 53.9667 22.3467 53.36 22.44 52.68C22.5467 52 22.6 51.3067 22.6 50.6ZM23.72 45.18V56H27.32V48.86C27.32 48.4067 27.3867 48.08 27.52 47.88C27.6533 47.68 27.88 47.58 28.2 47.58C28.52 47.58 28.7467 47.68 28.88 47.88C29.0133 48.08 29.08 48.4067 29.08 48.86V56H32.68V47.84C32.68 47.2533 32.6067 46.7733 32.46 46.4C32.3133 46.0267 32.1133 45.7267 31.86 45.5C31.6067 45.2733 31.3067 45.12 30.96 45.04C30.6267 44.9467 30.26 44.9 29.86 44.9C28.58 44.9 27.7067 45.4333 27.24 46.5H27.2V45.18H23.72ZM34.1706 41.72V56H37.7706V41.72H34.1706ZM39.3269 41.72V44.4H42.9269V41.72H39.3269ZM39.3269 45.18V56H42.9269V45.18H39.3269ZM44.4231 45.18V56H48.0231V48.86C48.0231 48.4067 48.0898 48.08 48.2231 47.88C48.3565 47.68 48.5831 47.58 48.9031 47.58C49.2231 47.58 49.4498 47.68 49.5831 47.88C49.7165 48.08 49.7831 48.4067 49.7831 48.86V56H53.3831V47.84C53.3831 47.2533 53.3098 46.7733 53.1631 46.4C53.0165 46.0267 52.8165 45.7267 52.5631 45.5C52.3098 45.2733 52.0098 45.12 51.6631 45.04C51.3298 44.9467 50.9631 44.9 50.5631 44.9C49.2831 44.9 48.4098 45.4333 47.9431 46.5H47.9031V45.18H44.4231ZM60.0738 48.76V49.24H58.0938V48.76C58.0938 48.1867 58.1604 47.7667 58.2938 47.5C58.4404 47.2333 58.7004 47.1 59.0738 47.1C59.4604 47.1 59.7204 47.2333 59.8538 47.5C60.0004 47.7667 60.0738 48.1867 60.0738 48.76ZM58.0938 51.2H63.4338V50.1C63.4338 49.1133 63.3404 48.2933 63.1538 47.64C62.9804 46.9733 62.7071 46.44 62.3338 46.04C61.9738 45.6267 61.5204 45.3333 60.9738 45.16C60.4404 44.9867 59.8138 44.9 59.0938 44.9C58.2804 44.9 57.5804 45.0067 56.9938 45.22C56.4204 45.42 55.9471 45.7467 55.5738 46.2C55.2004 46.6533 54.9271 47.24 54.7537 47.96C54.5804 48.68 54.4938 49.56 54.4938 50.6C54.4938 51.6267 54.5671 52.5 54.7138 53.22C54.8738 53.94 55.1338 54.5267 55.4938 54.98C55.8538 55.42 56.3271 55.74 56.9138 55.94C57.5004 56.1267 58.2271 56.22 59.0938 56.22C60.5871 56.22 61.6604 55.8867 62.3138 55.22C62.9671 54.54 63.3071 53.5333 63.3338 52.2H60.0938C60.0938 52.9333 60.0004 53.4333 59.8138 53.7C59.6404 53.9533 59.3938 54.08 59.0738 54.08C58.8204 54.08 58.5938 53.9867 58.3938 53.8C58.1938 53.6 58.0938 53.2067 58.0938 52.62V51.2Z" fill="white"/>
<path d="M68.2721 59.8608C67.5821 59.8608 66.9124 59.9619 66.2743 60.1509C65.1307 58.2634 63.2233 57.0271 61.0625 57.0271C60.3604 57.0271 59.6865 57.1593 59.0553 57.4001C57.9915 52.0195 53.7856 48 48.7561 48C42.923 48 38.1944 53.4043 38.1944 60.0708C38.1944 60.2083 38.1997 60.3445 38.2033 60.4802C37.461 60.2143 36.6713 60.0708 35.8522 60.0708C31.5157 60.0708 28 64.0881 28 69.0455C28 74.0015 31.5158 78.0191 35.8522 78.0191H59.3627H63.726H68.2724C72.66 78.0191 76.2171 73.9541 76.2171 68.94C76.2168 63.9255 72.6597 59.8608 68.2721 59.8608Z" fill="#E4F2F9"/>
<path d="M42.9003 58.0123C42.9003 54.773 43.5019 51.6945 44.5824 48.9131C40.1331 50.334 36.8681 54.998 36.8681 60.5365C36.8681 60.674 36.8734 60.8101 36.877 60.9459C36.1347 60.68 35.345 60.5365 34.5259 60.5365C30.1894 60.5365 26.6737 64.5538 26.6737 69.5112C26.6737 74.4672 30.1896 78.4848 34.5259 78.4848H54.4794C47.653 74.9694 42.9003 67.1252 42.9003 58.0123Z" fill="#D7EDF9"/>
</svg>
