<svg width="322" height="262" viewBox="0 0 322 262" fill="none" xmlns="http://www.w3.org/2000/svg">
<path d="M51.4005 212.33C54.0802 212.878 55.7906 215.007 55.3289 217.219L48.4166 252.131C47.9803 254.031 49.1374 255.938 51.2588 256.814C53.3802 257.691 55.9591 257.328 57.5936 255.923L102.577 215.184C103.595 214.263 105.046 213.737 106.57 213.737H257.609C273.266 213.737 288.281 208.687 299.352 199.696C310.423 190.706 316.643 178.513 316.643 165.799V52.4906C316.643 26.0151 290.212 4.55243 257.609 4.55243H64.4093C31.8061 4.55243 5.37598 26.0151 5.37598 52.4906V165.799C5.7146 188.059 24.7072 207.26 51.4005 212.33Z" fill="white" fill-opacity="0.11"/>
<path d="M64.4 4.55243H80.5C47.8968 4.55243 21.4666 26.0151 21.4666 52.4906V165.799C21.8053 188.059 40.7979 207.26 67.4912 212.33C70.1703 212.878 71.8791 215.008 71.4142 217.219L65.103 249.111L57.5897 255.923C55.9552 257.328 53.3763 257.691 51.2549 256.814C49.1334 255.938 47.9764 254.031 48.4127 252.131L55.3142 217.224C55.7791 215.012 54.0703 212.882 51.3912 212.334C24.696 207.264 5.70281 188.06 5.36664 165.799V52.4906C5.36664 39.7766 11.5862 27.5834 22.6571 18.5932C33.728 9.60305 48.7434 4.55243 64.4 4.55243Z" fill="#CAD9FC" fill-opacity="0.2"/>
<path d="M246.875 126.578C235.019 126.578 225.408 118.773 225.408 109.146C225.408 99.5181 235.019 91.7135 246.875 91.7135C258.731 91.7135 268.342 99.5181 268.342 109.146C268.342 118.773 258.731 126.578 246.875 126.578Z" fill="white" fill-opacity="0.11"/>
<path d="M160.99 126.578C149.135 126.578 139.524 118.773 139.524 109.146C139.524 99.5181 149.135 91.7135 160.99 91.7135C172.846 91.7135 182.457 99.5181 182.457 109.146C182.457 118.773 172.846 126.578 160.99 126.578Z" fill="white" fill-opacity="0.11"/>
<path d="M75.1329 126.578C63.2772 126.578 53.6663 118.773 53.6663 109.146C53.6663 99.5181 63.2772 91.7135 75.1329 91.7135C86.9887 91.7135 96.5996 99.5181 96.5996 109.146C96.5996 118.773 86.9887 126.578 75.1329 126.578Z" fill="white" fill-opacity="0.11"/>
<path d="M257.609 213.737H241.509C274.112 213.737 300.543 192.275 300.543 165.799V52.4906C300.543 26.0151 274.112 4.55243 241.509 4.55243H257.609C290.212 4.55243 316.643 26.0151 316.643 52.4906V165.799C316.643 192.275 290.212 213.737 257.609 213.737Z" fill="white" fill-opacity="0.11"/>
<path d="M322 130.935H311.267V165.799H322V130.935Z" fill="white" fill-opacity="0.11"/>
<path d="M316.53 152.724C319.494 152.736 321.909 150.795 321.924 148.388C321.939 145.981 319.548 144.02 316.584 144.008H316.53C313.566 144.008 311.164 145.959 311.164 148.366C311.164 150.773 313.566 152.724 316.53 152.724Z" fill="#70B2D6" fill-opacity="0.28"/>
<path d="M257.6 218.096H106.561L61.4805 258.895C59.4807 260.659 56.667 261.666 53.715 261.676C52.0085 261.675 50.3269 261.343 48.8098 260.708C44.569 259.005 42.2403 255.22 43.1104 251.443L50.1461 216.579C21.094 210.961 0.442291 190.048 0 165.799V52.4909C0.0384521 23.6214 28.8488 0.225896 64.4 0.194672H257.6C293.151 0.225896 321.962 23.6214 322 52.4909V130.935C322 133.342 319.597 135.293 316.633 135.293C313.669 135.293 311.267 133.342 311.267 130.935V52.4909C311.234 28.4332 287.226 8.93713 257.6 8.91071H64.4C34.7742 8.93713 10.7659 28.4332 10.7333 52.4909V165.799C11.1585 186.012 28.4108 203.417 52.6363 208.072C58.0388 209.161 61.5095 213.433 60.6165 217.895L53.5862 252.999L98.5749 212.256C100.614 210.421 103.517 209.376 106.561 209.38H257.6C287.226 209.353 311.234 189.857 311.267 165.799C311.267 163.393 313.669 161.441 316.633 161.441C319.597 161.441 322 163.393 322 165.799C321.962 194.669 293.151 218.064 257.6 218.096Z" fill="#70B2D6" fill-opacity="0.28"/>
<path d="M257.61 17.6252C281.31 17.6468 300.516 33.2434 300.543 52.4893C300.543 54.8962 298.14 56.8474 295.176 56.8474C292.212 56.8474 289.81 54.8962 289.81 52.4893C289.792 38.0541 275.386 26.3556 257.61 26.3412C254.646 26.3412 252.243 24.3901 252.243 21.9832C252.243 19.5763 254.646 17.6252 257.61 17.6252Z" fill="#70B2D6" fill-opacity="0.28"/>
<path d="M236.133 26.3412C233.169 26.3412 230.767 24.3901 230.767 21.9832C230.767 19.5763 233.169 17.6252 236.133 17.6252C239.097 17.6252 241.5 19.5763 241.5 21.9832C241.5 24.3901 239.097 26.3412 236.133 26.3412Z" fill="#70B2D6" fill-opacity="0.28"/>
<path d="M273.701 109.146C273.701 121.18 261.687 130.936 246.868 130.936C232.048 130.936 220.035 121.18 220.035 109.146C220.035 97.1116 232.048 87.3558 246.868 87.3558C261.68 87.3702 273.683 97.1175 273.701 109.146ZM230.768 109.146C230.768 116.366 237.976 122.22 246.868 122.22C255.76 122.22 262.968 116.366 262.968 109.146C262.968 101.925 255.76 96.0718 246.868 96.0718C237.976 96.0718 230.768 101.925 230.768 109.146Z" fill="#70B2D6" fill-opacity="0.28"/>
<path d="M134.175 109.146C134.175 97.1116 146.189 87.3558 161.008 87.3558C175.828 87.3558 187.842 97.1116 187.842 109.146C187.842 121.18 175.828 130.936 161.008 130.936C146.196 130.922 134.193 121.174 134.175 109.146ZM177.108 109.146C177.108 101.925 169.9 96.0718 161.008 96.0718C152.117 96.0718 144.908 101.925 144.908 109.146C144.908 116.366 152.117 122.22 161.008 122.22C169.9 122.22 177.108 116.366 177.108 109.146Z" fill="#70B2D6" fill-opacity="0.28"/>
<path d="M75.1256 130.936C60.306 130.936 48.2923 121.18 48.2923 109.146C48.2923 97.1116 60.306 87.3558 75.1256 87.3558C89.9453 87.3558 101.959 97.1116 101.959 109.146C101.941 121.174 89.9379 130.922 75.1256 130.936ZM75.1256 96.0718C66.2339 96.0718 59.0256 101.925 59.0256 109.146C59.0256 116.366 66.2339 122.22 75.1256 122.22C84.0174 122.22 91.2256 116.366 91.2256 109.146C91.2256 101.925 84.0174 96.0718 75.1256 96.0718Z" fill="#70B2D6" fill-opacity="0.28"/>
</svg>
