<?xml version="1.0" encoding="utf-8"?>
<!-- Generator: Adobe Illustrator 24.1.1, SVG Export Plug-In . SVG Version: 6.00 Build 0)  -->
<svg version="1.1" id="Layer_1" xmlns="http://www.w3.org/2000/svg" xmlns:xlink="http://www.w3.org/1999/xlink" x="0px" y="0px"
	 viewBox="0 0 198.1 29.1" style="enable-background:new 0 0 198.1 29.1;" xml:space="preserve">
<style type="text/css">
	.st0{fill:#3392E8;}
	.st1{fill:#70B2D6;}
	.st2{fill:#2FFF82;}
</style>
<path class="st0" d="M85,2.2h13.4v1.1H86.4v8.6h10.9V13H86.4v10.6H85V2.2z M100.5,5.2V2.2h1.1v3.1H100.5z M100.5,23.6V8.2h1.1v15.4
	H100.5z M105.3,8.2h1.1v3.3h0.1c0.2-0.6,0.5-1.1,0.8-1.5c0.4-0.5,0.8-0.9,1.3-1.2c0.5-0.3,1-0.6,1.6-0.7c0.6-0.2,1.2-0.2,1.8-0.2
	c0.9,0,1.7,0.1,2.3,0.3c0.6,0.2,1.2,0.5,1.6,0.9c0.4,0.4,0.7,0.8,0.9,1.2c0.2,0.4,0.4,0.9,0.5,1.4s0.2,0.9,0.2,1.4
	c0,0.4,0,0.8,0,1.1v9.5h-1.1v-9.8c0-0.4,0-0.9-0.1-1.4s-0.2-1.1-0.5-1.6c-0.3-0.5-0.7-1-1.3-1.4C113.8,9,113,8.8,112,8.8
	c-0.9,0-1.7,0.2-2.3,0.5c-0.7,0.3-1.3,0.8-1.7,1.4c-0.5,0.6-0.8,1.2-1.1,2c-0.2,0.8-0.4,1.6-0.4,2.6v8.3h-1.1V8.2z M122.2,11.7
	L122.2,11.7c0.2-0.4,0.4-0.8,0.7-1.3c0.3-0.5,0.7-0.9,1.1-1.3c0.5-0.4,1-0.7,1.7-1c0.7-0.3,1.4-0.4,2.3-0.4c1.2,0,2.2,0.2,3.1,0.7
	c0.9,0.4,1.6,1,2.2,1.8c0.6,0.7,1,1.6,1.3,2.6s0.4,2,0.4,3.1c0,1.2-0.1,2.3-0.4,3.2c-0.3,1-0.7,1.8-1.3,2.6
	c-0.6,0.7-1.3,1.3-2.2,1.6c-0.9,0.4-1.9,0.6-3.1,0.6c-1.3,0-2.4-0.3-3.4-0.8c-1-0.6-1.7-1.5-2.2-2.7h-0.1v8.7h-1.1V8.2h1.1V11.7z
	 M127.9,22.9c1,0,1.9-0.2,2.6-0.6c0.7-0.4,1.3-0.9,1.8-1.5c0.5-0.6,0.8-1.4,1.1-2.2c0.2-0.9,0.4-1.8,0.4-2.7c0-0.9-0.1-1.7-0.3-2.6
	c-0.2-0.9-0.6-1.6-1-2.3c-0.5-0.7-1.1-1.2-1.8-1.6c-0.7-0.4-1.6-0.6-2.6-0.6c-1,0-1.9,0.2-2.6,0.6c-0.7,0.4-1.3,0.9-1.8,1.6
	c-0.4,0.7-0.8,1.4-1,2.3c-0.2,0.8-0.3,1.7-0.3,2.6s0.1,1.8,0.3,2.7c0.2,0.8,0.5,1.6,0.9,2.3c0.4,0.6,1,1.2,1.7,1.6
	C125.9,22.8,126.8,22.9,127.9,22.9z M136.8,15.9c0-1.1,0.1-2.1,0.4-3.1c0.3-1,0.8-1.8,1.4-2.6c0.6-0.7,1.3-1.3,2.2-1.7
	c0.9-0.4,1.9-0.7,3-0.7s2.1,0.2,3,0.7c0.9,0.4,1.6,1,2.2,1.7c0.6,0.7,1.1,1.6,1.3,2.6c0.3,1,0.5,2,0.5,3.1c0,1.1-0.2,2.1-0.5,3.1
	c-0.3,1-0.8,1.8-1.3,2.6c-0.6,0.7-1.3,1.3-2.2,1.7c-0.9,0.4-1.9,0.6-3,0.6s-2.2-0.2-3-0.6c-0.9-0.4-1.6-1-2.2-1.7
	c-0.6-0.7-1.1-1.6-1.4-2.6C136.9,18,136.8,17,136.8,15.9z M137.9,15.9c0,0.9,0.1,1.8,0.4,2.7c0.3,0.8,0.6,1.6,1.1,2.3
	c0.5,0.7,1.1,1.2,1.9,1.6c0.7,0.4,1.6,0.6,2.6,0.6c1,0,1.8-0.2,2.6-0.6c0.7-0.4,1.4-0.9,1.9-1.6c0.5-0.7,0.9-1.4,1.1-2.3
	c0.3-0.9,0.4-1.8,0.4-2.7c0-0.9-0.1-1.8-0.4-2.6c-0.3-0.9-0.6-1.6-1.1-2.3s-1.1-1.2-1.9-1.6c-0.7-0.4-1.6-0.6-2.6-0.6
	c-1,0-1.8,0.2-2.6,0.6c-0.7,0.4-1.4,0.9-1.9,1.6s-0.9,1.4-1.1,2.3C138.1,14.1,137.9,14.9,137.9,15.9z M154.2,18.4
	c0,0.7,0.2,1.4,0.5,1.9c0.3,0.5,0.6,1,1.1,1.4c0.5,0.4,1,0.7,1.6,0.9c0.6,0.2,1.3,0.3,1.9,0.3c0.5,0,1,0,1.6-0.1
	c0.6-0.1,1.1-0.3,1.6-0.5c0.5-0.2,0.9-0.6,1.2-1c0.3-0.4,0.5-1,0.5-1.6c0-0.9-0.3-1.5-0.8-2c-0.5-0.4-1.2-0.8-2-1
	c-0.8-0.2-1.6-0.4-2.6-0.6c-0.9-0.2-1.8-0.4-2.5-0.7c-0.8-0.3-1.4-0.7-2-1.3c-0.5-0.6-0.8-1.4-0.8-2.4c0-0.8,0.2-1.4,0.5-1.9
	c0.3-0.5,0.8-0.9,1.3-1.2c0.5-0.3,1.1-0.5,1.8-0.6c0.7-0.1,1.3-0.2,2-0.2c0.8,0,1.6,0.1,2.3,0.3c0.7,0.2,1.3,0.5,1.8,0.9
	c0.5,0.4,0.9,0.9,1.2,1.5c0.3,0.6,0.4,1.4,0.4,2.2h-1.1c0-0.7-0.1-1.3-0.4-1.8c-0.2-0.5-0.5-0.9-1-1.2c-0.4-0.3-0.9-0.6-1.4-0.7
	c-0.6-0.2-1.2-0.2-1.8-0.2c-0.5,0-1.1,0-1.6,0.1c-0.5,0.1-1,0.3-1.4,0.5s-0.8,0.5-1.1,0.9c-0.3,0.4-0.4,0.8-0.4,1.4
	c0,0.6,0.2,1.1,0.4,1.5c0.3,0.4,0.7,0.7,1.2,0.9c0.5,0.2,1,0.4,1.6,0.5c0.6,0.1,1.2,0.3,1.9,0.4c0.8,0.1,1.5,0.3,2.1,0.5
	c0.7,0.2,1.3,0.4,1.7,0.8c0.5,0.3,0.9,0.7,1.2,1.3c0.3,0.5,0.4,1.2,0.4,2c0,0.8-0.2,1.5-0.6,2.1c-0.4,0.5-0.9,1-1.4,1.3
	c-0.6,0.3-1.2,0.5-1.9,0.7c-0.7,0.1-1.4,0.2-2.1,0.2c-0.9,0-1.7-0.1-2.5-0.4c-0.7-0.2-1.4-0.6-1.9-1c-0.6-0.5-1-1.1-1.3-1.7
	c-0.3-0.7-0.5-1.5-0.5-2.4H154.2z M173.7,9.1h-3.4v10.8c0,0.6,0.1,1.1,0.2,1.5c0.1,0.4,0.3,0.6,0.6,0.8c0.3,0.2,0.7,0.3,1.1,0.3
	c0.4,0,0.9,0.1,1.4,0v1c-0.6,0-1.2,0-1.7,0c-0.5-0.1-1-0.2-1.4-0.5c-0.4-0.3-0.8-0.6-1-1.1c-0.2-0.5-0.3-1.2-0.3-2.1V9.1h-2.9v-1
	h2.9V3.4h1.1v4.8h3.4V9.1z M175.9,16v0.2c0,0.9,0.1,1.8,0.4,2.6c0.2,0.8,0.6,1.5,1.1,2.2c0.5,0.6,1.1,1.1,1.8,1.5
	c0.7,0.4,1.6,0.5,2.5,0.5c1.5,0,2.8-0.4,3.7-1.2c0.9-0.8,1.5-2,1.9-3.4h1.1c-0.3,1.8-1.1,3.2-2.2,4.1c-1.1,1-2.6,1.4-4.5,1.4
	c-1.1,0-2.1-0.2-3-0.6c-0.8-0.4-1.6-1-2.1-1.7c-0.6-0.7-1-1.6-1.3-2.5c-0.3-1-0.4-2-0.4-3.1c0-1.1,0.1-2.1,0.4-3.1
	c0.3-1,0.7-1.9,1.3-2.6c0.6-0.8,1.3-1.4,2.2-1.8c0.9-0.5,1.9-0.7,3.1-0.7c1.1,0,2,0.2,2.9,0.6c0.8,0.4,1.5,1,2.1,1.7
	c0.6,0.7,1,1.5,1.3,2.4c0.3,0.9,0.4,1.9,0.4,2.9c0,0.1,0,0.2,0,0.4c0,0.1,0,0.2,0,0.3H175.9z M187.2,15c0-0.8-0.2-1.6-0.4-2.4
	c-0.2-0.8-0.6-1.4-1.1-2c-0.5-0.6-1-1-1.7-1.4c-0.7-0.3-1.4-0.5-2.3-0.5c-0.9,0-1.7,0.2-2.4,0.5c-0.7,0.3-1.3,0.8-1.8,1.4
	c-0.5,0.6-0.9,1.2-1.1,2s-0.4,1.5-0.5,2.3H187.2z M192.1,11.6L192.1,11.6c0.2-0.5,0.5-1,0.8-1.4c0.4-0.4,0.8-0.8,1.4-1.1
	c0.5-0.3,1.1-0.6,1.8-0.7c0.7-0.2,1.3-0.3,2-0.2v1.1c-0.6-0.1-1.3,0-2.1,0.2c-0.8,0.2-1.5,0.6-2.2,1.3c-0.3,0.3-0.5,0.6-0.8,0.9
	c-0.2,0.3-0.4,0.6-0.5,0.9s-0.3,0.7-0.3,1.1c-0.1,0.4-0.1,0.9-0.2,1.5v8.4H191V8.2h1.1V11.6z"/>
<path class="st1" d="M0,3.6l8.7-0.2l21.2,12.8l-5.1,8.6L0,3.6z"/>
<path class="st0" d="M19.2,9.8l10.6-5.1L45.4,14l-2,10.2L19.2,9.8z"/>
<path class="st2" d="M36.3,8.6L41.4,0l25.5,21.3l-9.4,0.2L36.3,8.6z"/>
</svg>
