<svg width="50" height="50" viewBox="0 0 50 50" fill="none" xmlns="http://www.w3.org/2000/svg">
<g clip-path="url(#clip0)">
<path d="M45.6 50H4.39998C3.74998 50 3.19998 49.45 3.19998 48.8C3.19998 48.15 3.74998 47.6 4.39998 47.6H45.55C46.2 47.6 46.75 48.15 46.75 48.8C46.8 49.45 46.25 50 45.6 50Z" fill="#333E50"/>
<path d="M45.6 45.5H4.39998C3.74998 45.5 3.19998 44.95 3.19998 44.3C3.19998 43.65 3.74998 43.1 4.39998 43.1H45.55C46.2 43.1 46.75 43.65 46.75 44.3C46.8 44.95 46.25 45.5 45.6 45.5Z" fill="#333E50"/>
<path d="M45.6 41H4.39998C3.74998 41 3.19998 40.45 3.19998 39.8C3.19998 39.15 3.74998 38.6 4.39998 38.6H45.55C46.2 38.6 46.75 39.15 46.75 39.8C46.8 40.45 46.25 41 45.6 41Z" fill="#333E50"/>
<path d="M22.5 10.4167L17.5 15V27.9167C17.7778 28.3333 18.5 29.3333 19.1667 30C19.8334 30.6667 22.5 31.3889 23.75 31.6667H36.6667C37.0834 31.6667 38.75 30.8333 39.1667 30C39.5 29.3333 38.4723 27.7778 37.9167 27.0833C38.3334 26.6667 39.25 25.6667 39.5834 25C39.9167 24.3333 38.6111 23.0556 37.9167 22.5C38.4723 22.0833 39.6667 21.0833 40 20.4167C40.3334 19.75 39.5834 18.4722 39.1667 17.9167C39.1667 17.7778 39.4167 17.25 40.4167 16.25C41.6667 15 40 14.5833 40 13.75C40 12.9167 32.5 13.75 30.8334 13.75C29.1667 13.75 28.75 12.9167 28.75 12.0833C28.75 11.25 30.4167 6.66667 30.8334 5.41667C31.25 4.16667 29.5834 2.5 27.9167 2.5C26.5834 2.5 23.75 7.77778 22.5 10.4167Z" fill="white"/>
<path d="M9.3402 30.123H17.0891L17.0891 14.2925L9.3402 14.2925L9.3402 30.123Z" fill="#95CE5A"/>
<path d="M16.8989 14.3877L23.2691 10.3944C23.2691 10.3944 19.3234 16.004 19.3234 21.4234C19.3234 26.8429 22.8888 31.3115 22.8888 31.3115L16.8989 28.5067V14.3877Z" fill="#C3E2FC"/>
<path d="M41.0962 20.1874C41.0962 19.4743 40.8585 18.7613 40.4307 18.2383C41.1913 17.6679 41.6667 16.7171 41.6667 15.6712C41.6667 13.8647 40.2405 12.4386 38.434 12.4386C37.1505 12.4386 35.344 12.4386 33.7752 12.4861C33.0621 12.5337 31.636 12.5337 29.6393 12.4386C30.495 9.87147 31.5409 6.63883 31.7311 5.49789C32.0638 3.83403 31.113 2.36032 29.3541 1.83739C27.5952 1.31447 25.8362 2.02755 25.2182 3.50126C24.2199 5.92574 21.1774 11.5829 17.8497 13.6746C17.8021 13.7221 17.7071 13.7697 17.6595 13.8647C17.1841 13.4844 16.6137 13.2467 15.9957 13.2467H11.0516C9.57791 13.2467 8.43698 14.4352 8.43698 15.8614V28.7444C8.43698 30.2181 9.62545 31.3591 11.0516 31.3591H15.9006C16.7088 31.3591 17.4218 30.9788 17.9448 30.4083C19.3709 31.5017 21.8905 32.5 24.8379 32.5H36.7226C38.5291 32.5 39.9553 31.0738 39.9553 29.2674C39.9553 28.5543 39.7176 27.8412 39.2897 27.3183C40.0504 26.7003 40.5258 25.797 40.5258 24.7512C40.5258 24.0381 40.2881 23.325 39.8602 22.8021C40.6208 22.1841 41.0962 21.2333 41.0962 20.1874ZM16.6137 28.7444C16.6137 29.1247 16.2809 29.4575 15.9006 29.4575H11.0041C10.6238 29.4575 10.291 29.1247 10.291 28.7444L10.291 15.9089C10.291 15.5286 10.6238 15.1958 11.0041 15.1958H15.9006C16.2809 15.1958 16.6137 15.5286 16.6137 15.9089L16.6137 28.7444ZM38.434 17.0023H38.339C37.8636 17.0023 37.4833 17.3351 37.4833 17.8105V17.9531C37.4357 18.4285 37.721 18.8088 38.1488 18.9514C38.7193 19.1416 39.1471 19.5694 39.1947 20.0923C39.2422 20.853 38.6717 21.5185 37.9111 21.5185H37.816C37.3406 21.5185 36.9603 21.8513 36.9603 22.3267V22.4693C36.9128 22.9447 37.198 23.325 37.6259 23.4676C38.1488 23.6102 38.6242 24.0856 38.6242 24.6085C38.6717 25.3692 38.1013 26.0347 37.3406 26.0347H37.2456C36.7702 26.0347 36.3899 26.3675 36.3899 26.8429V26.9855C36.3423 27.4609 36.6276 27.8412 37.0554 27.9838C37.5783 28.1264 38.0537 28.6018 38.0537 29.1247C38.1013 29.8854 37.5308 30.5509 36.7702 30.5509L24.8379 30.5509C21.4151 30.5509 18.9906 29.0297 18.5152 28.4117L18.5628 15.8138C18.5628 15.6237 18.6578 15.4335 18.848 15.3384C22.8888 12.8664 26.2165 6.35359 27.0247 4.26188C27.2624 3.64387 28.1181 3.5488 28.8312 3.73895C29.2115 3.83403 30.0672 4.21434 29.877 5.21266C29.7344 5.97328 29.0213 8.4453 27.8329 11.8681C27.7853 12.0583 27.7378 12.3435 27.7378 12.5337C27.7853 13.6746 28.6886 14.4827 29.6869 14.4827C31.6835 14.4827 33.0621 14.4827 33.8703 14.4827C35.3915 14.4352 37.198 14.4352 38.434 14.4352C39.052 14.4352 39.6225 14.8631 39.7651 15.4811C39.8602 16.2892 39.2422 17.0023 38.434 17.0023Z" fill="#333E50"/>
<path d="M13.4761 24.7987C12.7147 24.7987 12.0974 25.4159 12.0974 26.1773C12.0974 26.9387 12.7147 27.5559 13.4761 27.5559C14.2375 27.5559 14.8547 26.9387 14.8547 26.1773C14.8547 25.4159 14.2375 24.7987 13.4761 24.7987Z" fill="#333E50"/>
</g>
<defs>
<clipPath id="clip0">
<path d="M0 0H50V50H0V0Z" fill="white"/>
</clipPath>
</defs>
</svg>
